<?xml version="1.0" encoding="utf-8"?><svg xmlns="http://www.w3.org/2000/svg" xmlns:xlink="http://www.w3.org/1999/xlink"><symbol viewBox="0 0 24 24" id="arrow_bottom" xmlns="http://www.w3.org/2000/svg"><path fill-rule="evenodd" clip-rule="evenodd" d="M19.707 11.293a1 1 0 0 1 0 1.414l-7 7a1 1 0 0 1-1.414 0l-7-7a1 1 0 1 1 1.414-1.414L11 16.586V5a1 1 0 1 1 2 0v11.586l5.293-5.293a1 1 0 0 1 1.414 0Z"/></symbol><symbol viewBox="0 0 24 24" id="arrow_left" xmlns="http://www.w3.org/2000/svg"><path fill-rule="evenodd" clip-rule="evenodd" d="M12.707 4.293a1 1 0 0 0-1.414 0l-7 7a1 1 0 0 0 0 1.414l7 7a1 1 0 0 0 1.414-1.414L7.414 13H19a1 1 0 1 0 0-2H7.414l5.293-5.293a1 1 0 0 0 0-1.414Z"/></symbol><symbol viewBox="0 0 24 24" id="arrow_right" xmlns="http://www.w3.org/2000/svg"><path fill-rule="evenodd" clip-rule="evenodd" d="M11.293 4.293a1 1 0 0 1 1.414 0l7 7a1 1 0 0 1 0 1.414l-7 7a1 1 0 0 1-1.414-1.414L16.586 13H5a1 1 0 1 1 0-2h11.586l-5.293-5.293a1 1 0 0 1 0-1.414Z"/></symbol><symbol viewBox="0 0 24 24" id="arrow_top" xmlns="http://www.w3.org/2000/svg"><path fill-rule="evenodd" clip-rule="evenodd" d="M4.293 12.707a1 1 0 0 1 0-1.414l7-7a1 1 0 0 1 1.414 0l7 7a1 1 0 0 1-1.414 1.414L13 7.414V19a1 1 0 1 1-2 0V7.414l-5.293 5.293a1 1 0 0 1-1.414 0Z"/></symbol><symbol viewBox="0 0 24 24" id="arrow_top_right" xmlns="http://www.w3.org/2000/svg"><path fill-rule="evenodd" clip-rule="evenodd" d="M6.05 7.05a1 1 0 0 1 1-1h9.9a1 1 0 0 1 1 1v9.9a1 1 0 1 1-2 0V9.464l-8.192 8.193a1 1 0 0 1-1.415-1.414l8.193-8.193H7.05a1 1 0 0 1-1-1Z"/></symbol><symbol viewBox="0 0 62 24" id="bm" xmlns="http://www.w3.org/2000/svg"><path d="M.766 23.202H11.65c5.853 0 9.767-2.04 9.767-7.138 0-2.472-1.086-4.017-2.763-4.975 1.349-1.144 1.875-2.503 1.875-4.357 0-4.82-3.98-5.933-9.306-5.933H.766v22.403Zm6.872-9.085h4.21c1.545 0 2.4.834 2.4 1.947 0 1.081-.855 1.916-2.4 1.916h-4.21v-3.863Zm0-8.096h3.782c1.315 0 2.039.865 2.039 1.823s-.724 1.792-2.039 1.792H7.638V6.021Zm33.27 17.181L45.643 7.69v15.512h6.182V.799h-9.964l-3.979 13.936L33.838.799H23.775v22.403h6.182V7.782l4.801 15.42h6.15Zm21.092 0v-6.49h-7.136v6.49H62Z"/></symbol><symbol viewBox="0 0 20 22" id="calendar" xmlns="http://www.w3.org/2000/svg"><g fill-rule="evenodd" clip-rule="evenodd"><path d="M6 0a1 1 0 0 1 1 1v3a1 1 0 0 1-2 0V1a1 1 0 0 1 1-1Zm8 0a1 1 0 0 1 1 1v3a1 1 0 1 1-2 0V1a1 1 0 0 1 1-1ZM.5 8.09a1 1 0 0 1 1-1h17a1 1 0 1 1 0 2h-17a1 1 0 0 1-1-1Z"/><path d="M2.92 4.555C2.337 5.184 2 6.153 2 7.5V16c0 1.347.337 2.316.92 2.945C3.491 19.559 4.44 20 6 20h8c1.56 0 2.509-.44 3.08-1.055.583-.629.92-1.598.92-2.945V7.5c0-1.347-.337-2.316-.92-2.945C16.509 3.941 15.56 3.5 14 3.5H6c-1.56 0-2.509.44-3.08 1.055Zm-1.465-1.36C2.509 2.059 4.059 1.5 6 1.5h8c1.94 0 3.491.56 4.545 1.695C19.587 4.316 20 5.847 20 7.5V16c0 1.653-.413 3.184-1.455 4.305C17.491 21.441 15.941 22 14 22H6c-1.94 0-3.491-.56-4.545-1.695C.413 19.184 0 17.653 0 16V7.5c0-1.653.413-3.184 1.455-4.305Z"/><path d="M12.694 12.7a1 1 0 0 1 1-1h.01a1 1 0 1 1 0 2h-.01a1 1 0 0 1-1-1Zm0 3a1 1 0 0 1 1-1h.01a1 1 0 1 1 0 2h-.01a1 1 0 0 1-1-1Zm-3.699-3a1 1 0 0 1 1-1h.01a1 1 0 1 1 0 2h-.01a1 1 0 0 1-1-1Zm0 3a1 1 0 0 1 1-1h.01a1 1 0 1 1 0 2h-.01a1 1 0 0 1-1-1Zm-3.701-3a1 1 0 0 1 1-1h.009a1 1 0 1 1 0 2h-.01a1 1 0 0 1-1-1Zm0 3a1 1 0 0 1 1-1h.009a1 1 0 1 1 0 2h-.01a1 1 0 0 1-1-1Z"/></g></symbol><symbol viewBox="0 0 16 16" id="checkbox" xmlns="http://www.w3.org/2000/svg"><path fill-rule="evenodd" clip-rule="evenodd" d="M13.805 3.529c.26.26.26.682 0 .943L6.47 11.805a.667.667 0 0 1-.942 0L2.195 8.472a.667.667 0 1 1 .943-.943L6 10.39l6.862-6.862c.26-.26.682-.26.943 0Z"/></symbol><symbol viewBox="0 0 24 24" id="chevron_bottom" xmlns="http://www.w3.org/2000/svg"><path fill-rule="evenodd" clip-rule="evenodd" d="M6.293 9.293a1 1 0 0 0 0 1.414l5 5a1 1 0 0 0 1.414 0l5-5a1 1 0 0 0-1.414-1.414L12 13.586 7.707 9.293a1 1 0 0 0-1.414 0Z"/></symbol><symbol viewBox="0 0 24 24" id="chevron_left" xmlns="http://www.w3.org/2000/svg"><path fill-rule="evenodd" clip-rule="evenodd" d="M14.707 6.293a1 1 0 0 0-1.414 0l-5 5a1 1 0 0 0 0 1.414l5 5a1 1 0 0 0 1.414-1.414L10.414 12l4.293-4.293a1 1 0 0 0 0-1.414Z"/></symbol><symbol viewBox="0 0 24 24" id="chevron_right" xmlns="http://www.w3.org/2000/svg"><path fill-rule="evenodd" clip-rule="evenodd" d="M9.293 6.293a1 1 0 0 1 1.414 0l5 5a1 1 0 0 1 0 1.414l-5 5a1 1 0 0 1-1.414-1.414L13.586 12 9.293 7.707a1 1 0 0 1 0-1.414Z"/></symbol><symbol viewBox="0 0 24 24" id="chevron_top" xmlns="http://www.w3.org/2000/svg"><path fill-rule="evenodd" clip-rule="evenodd" d="M6.293 14.707a1 1 0 0 1 0-1.414l5-5a1 1 0 0 1 1.414 0l5 5a1 1 0 0 1-1.414 1.414L12 10.414l-4.293 4.293a1 1 0 0 1-1.414 0Z"/></symbol><symbol viewBox="0 0 24 24" id="facebook" xmlns="http://www.w3.org/2000/svg"><path d="M13.1 8.553V6.83c0-.259.011-.459.035-.6a1.18 1.18 0 0 1 .161-.42.66.66 0 0 1 .406-.285c.187-.052.436-.079.746-.079h1.695V2h-2.71c-1.567 0-2.693.378-3.377 1.135-.685.756-1.027 1.87-1.027 3.343v2.075H7V12h2.03v10h4.07V12h2.709l.358-3.447h-3.068Z"/></symbol><symbol viewBox="0 0 20 20" id="fields_area" xmlns="http://www.w3.org/2000/svg"><path d="M3.414 16.143 2 14.728 14.728 2.002l1.414 1.414L3.414 16.143Zm12.021-6.364-5.657 5.657-1.414-1.415 5.657-5.656 1.414 1.414Z"/></symbol><symbol viewBox="0 0 60 60" id="graph_award" xmlns="http://www.w3.org/2000/svg"><g clip-path="url(#aoa)"><path d="m35.329 20.483-6.57 8.72-3.331-3.473a2.344 2.344 0 0 0-3.382 3.245l3.542 3.692a4.42 4.42 0 0 0 3.46 1.355 4.421 4.421 0 0 0 3.273-1.756l6.751-8.962a2.344 2.344 0 0 0-3.743-2.82Z"/><path d="M58.224 40.531a1.723 1.723 0 0 0-.03-.024L49.11 32.9a2.343 2.343 0 0 0-3.788 1.268c-1.029 4.444-4.061 8.27-8.112 10.235L30 47.9l-7.21-3.497c-5.165-2.505-8.502-7.85-8.502-13.614V14.075a23.08 23.08 0 0 0 7.104-6.508h17.216a23.08 23.08 0 0 0 7.104 6.508v8.864a2.344 2.344 0 1 0 4.687 0V12.685c0-.885-.498-1.694-1.288-2.093a18.386 18.386 0 0 1-7.27-6.617 2.344 2.344 0 0 0-1.983-1.095H20.142c-.805 0-1.554.413-1.983 1.095a18.389 18.389 0 0 1-7.27 6.617A2.344 2.344 0 0 0 9.6 12.685v18.104c0 .943.068 1.877.2 2.797l-8.025 6.946a5.104 5.104 0 0 0-1.708 4.71 5.161 5.161 0 0 0 3.152 3.966l2.786 1.148.763 2.89a5.17 5.17 0 0 0 3.496 3.639 5.237 5.237 0 0 0 1.548.235 5.14 5.14 0 0 0 3.373-1.262l7.356-6.366 6.435 3.122c.646.313 1.4.313 2.046 0l6.435-3.122 7.356 6.366a5.14 5.14 0 0 0 3.373 1.262 5.24 5.24 0 0 0 1.548-.235 5.17 5.17 0 0 0 3.496-3.638l.763-2.89 2.786-1.149a5.16 5.16 0 0 0 3.152-3.966 5.105 5.105 0 0 0-1.708-4.71ZM12.118 52.314a.476.476 0 0 1-.47.092.492.492 0 0 1-.347-.356l-1.06-4.016a2.344 2.344 0 0 0-1.373-1.568l-3.862-1.592a.486.486 0 0 1-.311-.385.426.426 0 0 1 .148-.413l6.362-5.506a19.96 19.96 0 0 0 6.939 8.53l-6.026 5.214Zm43.187-7.824a.485.485 0 0 1-.311.384l-3.862 1.592c-.678.28-1.186.86-1.373 1.569l-1.06 4.015a.493.493 0 0 1-.347.356.475.475 0 0 1-.47-.092l-6.028-5.216a19.874 19.874 0 0 0 6.882-8.398l6.429 5.383c.12.108.167.245.14.407Z"/></g><defs><clipPath id="aoa"><path d="M0 0h60v60H0z"/></clipPath></defs></symbol><symbol viewBox="0 0 60 60" id="graph_dermatolog" xmlns="http://www.w3.org/2000/svg"><mask id="apa" maskUnits="userSpaceOnUse" x="0" y="0" width="60" height="60"><path d="M0 0h60v60H0V0Z"/></mask><g mask="url(#apa)"><path fill-rule="evenodd" clip-rule="evenodd" d="M57.656 40.87a2.197 2.197 0 0 0 2.197-2.198V15.828c0-1.843-.672-3.523-1.937-4.738-1.258-1.208-2.957-1.82-4.78-1.82-3.85 0-6.466 3.392-6.466 6.717a2.197 2.197 0 1 0 4.395 0c0-1.31 1.04-2.323 2.071-2.323.838 0 1.399.271 1.736.595.33.317.587.817.587 1.57v22.843c0 1.213.984 2.197 2.197 2.197ZM15.778 54.86a32.94 32.94 0 0 0 17.436 4.993h13.72a12.853 12.853 0 0 0 12.215-8.711 2.197 2.197 0 0 0-4.158-1.422 8.458 8.458 0 0 1-8.057 5.739h-13.72c-5.342 0-10.577-1.5-15.11-4.327L6.849 44.109l-1.661-1.185a2.49 2.49 0 0 1 2.566-4.059l8.945 4.104a4.43 4.43 0 0 0 1.857.358c2.184-.083 3.85-1.268 4.906-2.704a8.315 8.315 0 0 0 1.587-4.827V10.313a2.15 2.15 0 0 1 2.138-2.139c1.172 0 2.14.967 2.14 2.139v14.643a2.197 2.197 0 1 0 4.394 0V10.313c0-3.599-2.935-6.534-6.534-6.534-3.598 0-6.533 2.935-6.533 6.534v25.483c0 .737-.264 1.587-.732 2.223-.433.589-.937.877-1.479.914h-.002l-.006-.002-8.964-4.112a2.197 2.197 0 0 0-.203-.081 6.885 6.885 0 0 0-7.057 11.43c.082.079.17.152.263.218l1.878 1.34c.037.026.074.052.113.076l11.313 7.058Z"/><path fill-rule="evenodd" clip-rule="evenodd" d="M48.867 29.62a2.197 2.197 0 0 0 2.197-2.198V10.948c0-3.602-2.911-6.583-6.533-6.583-3.621 0-6.533 2.981-6.533 6.583a2.197 2.197 0 0 0 4.395 0c0-1.222.99-2.188 2.138-2.188s2.139.966 2.139 2.188v16.474c0 1.213.984 2.197 2.197 2.197Z"/><path fill-rule="evenodd" clip-rule="evenodd" d="M31.523 29.62a2.197 2.197 0 0 0 2.198-2.198V6.68c0-1.171.967-2.139 2.138-2.139 1.172 0 2.139.968 2.139 2.139v20.742a2.197 2.197 0 0 0 4.395 0V6.68c0-3.599-2.935-6.533-6.534-6.533-3.598 0-6.533 2.934-6.533 6.533v20.742c0 1.213.984 2.197 2.197 2.197Z"/><path d="M35.156 36.914a2.344 2.344 0 1 1-4.687 0 2.344 2.344 0 0 1 4.687 0Zm8.672 4.805a2.344 2.344 0 1 1-4.687 0 2.344 2.344 0 0 1 4.687 0Zm-14.414 4.804a2.344 2.344 0 1 1-4.687 0 2.344 2.344 0 0 1 4.687 0Zm21.563-10.078a2.344 2.344 0 1 1-4.688 0 2.344 2.344 0 0 1 4.688 0ZM38.438 49.57a2.344 2.344 0 1 1-4.688 0 2.344 2.344 0 0 1 4.688 0Zm11.601-1.289a2.344 2.344 0 1 1-4.687 0 2.344 2.344 0 0 1 4.687 0Z"/></g></symbol><symbol viewBox="0 0 60 60" id="graph_gastroskopia" xmlns="http://www.w3.org/2000/svg"><path d="M50.617 51.669a2.34 2.34 0 0 1-.29 3.298c-3.933 3.3-8.93 4.972-14.85 4.972-8.656 0-12.673-4.384-15.606-7.586-2.128-2.323-3.327-3.535-5.232-3.535a2.44 2.44 0 0 0-.123.003c-.28.556-.498 1.88-.47 2.472.005.11.007.222.007.334v5.97a2.341 2.341 0 1 1-4.682 0v-5.97c0-.037-.001-.074-.003-.11-.002-.04-.1-4.037 1.864-6.095.826-.866 1.94-1.287 3.407-1.287 4.055 0 6.409 2.57 8.685 5.055 2.732 2.982 5.557 6.066 12.153 6.066 4.79 0 8.774-1.304 11.84-3.877a2.341 2.341 0 0 1 3.3.29ZM14.639 39.452c3.204 0 4.948 1.142 6.795 2.352 1.753 1.147 3.74 2.448 6.668 2.448 3.25 0 5.27-1.974 5.27-5.152l-.002-13.58c0-2.362-.432-4.048-1.32-5.153-.507-.632-1.408-1.383-2.831-1.401-1.593-.067-3.268-.926-4.6-2.36-3.696-3.977-5.65-8.91-5.65-14.265a2.34 2.34 0 1 0-4.681 0c0 3.231.592 6.372 1.76 9.337 1.175 2.979 2.904 5.709 5.14 8.115 2.064 2.222 4.642 3.562 7.314 3.816.085.321.185.912.185 1.912l.002 13.58c0 .206-.019.338-.036.414a2.23 2.23 0 0 1-.551.054c-1.532 0-2.61-.706-4.103-1.684-2.12-1.388-4.76-3.116-9.36-3.116-4.05 0-7.573 1.449-10.186 4.19C.028 43.598-.034 50.338.005 51.747v5.85a2.341 2.341 0 1 0 4.683 0v-5.885l-.001-.073c-.02-.608-.092-6.044 3.155-9.45C9.55 40.4 11.9 39.452 14.64 39.452ZM59.944 27.08c-.014-7.728-2.027-13.588-5.985-17.417-4.497-4.351-9.899-4.404-10.544-4.395-4.89.007-8.155 2.276-10.317 3.78-.56.389-1.294.899-1.713 1.091-.013-.015-.027-.031-.04-.049a2.184 2.184 0 0 0-.083-.098c-1.914-2.157-2.926-4.803-2.926-7.65a2.341 2.341 0 0 0-4.683 0c0 3.99 1.406 7.694 4.067 10.713 1.661 2.05 3.58 1.949 4.58 1.703 1.212-.297 2.259-1.024 3.47-1.865 1.984-1.38 4.233-2.942 7.667-2.942.027 0 .052 0 .078-.002.04 0 3.963-.04 7.188 3.08 3.025 2.925 4.558 7.68 4.558 14.13 0 .056.003.114.006.169.007.087.584 8.826-2.624 16.488a2.341 2.341 0 0 0 4.319 1.808c3.505-8.371 3.05-17.475 2.982-18.544Z"/></symbol><symbol viewBox="0 0 60 56" id="graph_hirurg" xmlns="http://www.w3.org/2000/svg"><path d="M55.262 4.98C52.454 2.183 48.502.704 43.832.704c-7.292.165-10.966 3.34-13.77 6.974a17.327 17.327 0 0 0-1.064-1.361C24.154.042 11.465-1.752 4.755 4.98 1.612 8.114.018 12.693.018 18.589c-.641 11.177 16.428 28.49 25.214 35.067a7.768 7.768 0 0 0 9.554 0c1.356-1.056 4.14-3.309 7.532-6.523a2.343 2.343 0 1 0-3.222-3.402c-3.25 3.078-5.9 5.223-7.19 6.227a3.085 3.085 0 0 1-3.795 0c-5.065-3.867-13.96-12.285-18.518-19.146H15.6a2.343 2.343 0 0 0 2.117-1.34l2.136-4.503 6.02 13.697a2.343 2.343 0 0 0 2.139 1.4h.006a2.343 2.343 0 0 0 2.14-1.388l4.787-10.73 3.049 6.03a2.343 2.343 0 0 0 4.119.116l1.9-3.282h6.327a66.505 66.505 0 0 1-3.507 4.596c-1.888 2.472 1.53 5.305 3.608 2.99 6.433-7.76 9.56-14.24 9.56-19.81 0-5.896-1.594-10.474-4.738-13.607Zm-12.6 21.145a2.343 2.343 0 0 0-2.029 1.17l-.41.708-3.32-6.567a2.344 2.344 0 0 0-4.23.103l-4.64 10.398-5.955-13.549a2.343 2.343 0 0 0-4.261-.062l-3.7 7.8H6.814c-1.394-2.812-2.11-5.35-2.11-7.537 0-10.91 6.243-13.2 11.48-13.2a11.813 11.813 0 0 1 11.577 7.927 2.333 2.333 0 0 0 4.472.074c.141-.41 2.88-8 11.6-8 5.237 0 11.48 2.29 11.48 13.199 0 2.194-.719 4.713-2.147 7.537H42.661Z"/></symbol><symbol viewBox="0 0 60 60" id="graph_instrument" xmlns="http://www.w3.org/2000/svg"><g clip-path="url(#asa)"><path d="M54.63 25.185v-11.72a4.693 4.693 0 0 0-4.687-4.687H8.693a4.693 4.693 0 0 0-4.687 4.688v23.437a4.693 4.693 0 0 0 4.687 4.688h41.25a4.693 4.693 0 0 0 4.688-4.688 2.344 2.344 0 1 1 4.687 0c0 5.17-4.205 9.375-9.375 9.375h-18.28v4.674h8.202a2.344 2.344 0 1 1 0 4.687H18.771a2.344 2.344 0 1 1 0-4.687h8.204v-4.674H8.693c-5.17 0-9.375-4.205-9.375-9.375V13.466c0-5.17 4.206-9.375 9.375-9.375h41.25c5.17 0 9.375 4.205 9.375 9.375v11.719a2.344 2.344 0 1 1-4.687 0Zm-14.296-2.813c-.93 0-1.77.549-2.145 1.399l-2.087 4.738-5.428-13.57a2.343 2.343 0 0 0-4.298-.125L21.14 25.972l-1.39-2.423a2.344 2.344 0 0 0-2.033-1.177h-6.68a2.344 2.344 0 1 0 0 4.688h5.323l2.957 5.15a2.343 2.343 0 0 0 4.154-.171l4.856-10.347 5.495 13.738a2.344 2.344 0 0 0 2.136 1.473h.04c.928 0 1.77-.548 2.145-1.399l3.72-8.444H47.6a2.344 2.344 0 1 0 0-4.688h-7.266Z"/></g><defs><clipPath id="asa"><path d="M0 0h60v60H0z"/></clipPath></defs></symbol><symbol viewBox="0 0 50 60" id="graph_kolonoskopia" xmlns="http://www.w3.org/2000/svg"><g fill-rule="evenodd" clip-rule="evenodd"><path d="M21.484 1.758c0-.971.787-1.758 1.758-1.758h7.031c.971 0 1.758.787 1.758 1.758v3.75c0 .97.787 1.758 1.758 1.758h7.031a8.79 8.79 0 1 1 0 17.578H19.727a1.758 1.758 0 1 1 0-3.516H40.82a5.274 5.274 0 0 0 0-10.547h-7.03a5.273 5.273 0 0 1-5.274-5.273V3.516H25v1.992a8.79 8.79 0 0 0 8.79 8.789h7.03a1.758 1.758 0 0 1 0 3.515h-7.03c-6.797 0-12.306-5.509-12.306-12.304v-3.75Z"/><path d="M10.938 23.086a8.79 8.79 0 0 1 8.789-8.79h14.062a1.758 1.758 0 0 1 0 3.517H19.727a5.273 5.273 0 1 0 0 10.546H40.82a1.758 1.758 0 0 1 0 3.516H19.727a8.79 8.79 0 0 1-8.79-8.79Z"/><path d="M39.063 23.086c0-.97.786-1.758 1.757-1.758a8.79 8.79 0 0 1 5.275 15.82 8.79 8.79 0 0 1-5.274 15.82h-7.032a1.76 1.76 0 0 0-1.758 1.759v3.515c0 .971-.787 1.758-1.758 1.758h-7.03a1.758 1.758 0 0 1-1.759-1.758v-3.515c0-6.796 5.51-12.305 12.305-12.305a1.758 1.758 0 0 1 0 3.516A8.79 8.79 0 0 0 25 54.727v1.757h3.516v-1.757a5.273 5.273 0 0 1 5.273-5.274h7.031a5.274 5.274 0 0 0 0-10.547H19.727a1.758 1.758 0 1 1 0-3.515H40.82a5.274 5.274 0 0 0 0-10.547c-.97 0-1.758-.787-1.758-1.758Z"/><path d="M10.059 6.34a1.758 1.758 0 0 1 2.4.644l1.759 3.044a1.758 1.758 0 1 1-3.045 1.758L9.415 8.742a1.758 1.758 0 0 1 .644-2.402ZM2.98 13.418a1.758 1.758 0 0 1 2.401-.644l3.045 1.758a1.758 1.758 0 1 1-1.758 3.045l-3.044-1.758a1.758 1.758 0 0 1-.644-2.401ZM.39 23.086c0-.971.787-1.758 1.757-1.758h3.516a1.758 1.758 0 1 1 0 3.515H2.148c-.97 0-1.757-.787-1.757-1.757Zm31.64 0c0-.971.787-1.758 1.758-1.758h3.516a1.758 1.758 0 0 1 0 3.515h-3.516c-.97 0-1.758-.787-1.758-1.757ZM10.938 37.148a8.79 8.79 0 0 1 8.789-8.789 1.758 1.758 0 0 1 0 3.516 5.273 5.273 0 1 0 0 10.547H40.82a1.758 1.758 0 0 1 0 3.515H19.727a8.79 8.79 0 0 1-8.79-8.789Z"/></g></symbol><symbol viewBox="0 0 52 60" id="graph_location" xmlns="http://www.w3.org/2000/svg"><g fill-rule="evenodd" clip-rule="evenodd"><path d="M25.932 15.777c-5.616 0-10.176 4.562-10.176 10.199s4.56 10.199 10.176 10.199c5.615 0 10.175-4.562 10.175-10.2 0-5.636-4.56-10.198-10.175-10.198ZM11.069 25.976c0-8.217 6.65-14.886 14.863-14.886 8.212 0 14.863 6.669 14.863 14.886 0 8.217-6.65 14.886-14.863 14.886s-14.863-6.669-14.863-14.886Z"/><path d="M0 25.976C0 11.655 11.627 0 25.932 0c14.306 0 25.933 11.655 25.933 25.976 0 8.811-4.017 15.968-8.692 21.306a2.344 2.344 0 0 1-3.526-3.088c4.212-4.81 7.53-10.912 7.53-18.218 0-11.74-9.536-21.288-21.245-21.288-11.708 0-21.244 9.547-21.244 21.288 0 9.22 5.346 16.558 11.03 21.739 2.817 2.569 5.644 4.538 7.77 5.864a48.945 48.945 0 0 0 2.448 1.436c.227-.123.489-.268.78-.434a54.248 54.248 0 0 0 4.594-2.943 2.344 2.344 0 0 1 2.72 3.818 58.947 58.947 0 0 1-4.994 3.198 44.122 44.122 0 0 1-1.927 1.036 19.547 19.547 0 0 1-.151.074l-.01.005-.006.002-1.01-2.115a271.302 271.302 0 0 1-1.016 2.112l-.002-.001-.007-.003-.018-.01c-.015-.006-.036-.017-.063-.03a35.172 35.172 0 0 1-1.024-.534 53.313 53.313 0 0 1-2.796-1.634c-2.298-1.434-5.367-3.57-8.447-6.377C6.447 45.607 0 37.105 0 25.976Zm25.932 31.68-1.014 2.113a2.344 2.344 0 0 0 2.023.003l-1.009-2.116Z"/></g></symbol><symbol viewBox="0 0 60 48" id="graph_mail" xmlns="http://www.w3.org/2000/svg"><g fill-rule="evenodd" clip-rule="evenodd"><path d="M0 9.375A9.375 9.375 0 0 1 9.375 0h41.25A9.375 9.375 0 0 1 60 9.375v16.852a2.344 2.344 0 0 1-4.688 0V9.375a4.688 4.688 0 0 0-4.687-4.688H9.375a4.688 4.688 0 0 0-4.688 4.688v28.508a4.687 4.687 0 0 0 4.688 4.688h41.25a4.687 4.687 0 0 0 4.687-4.645 2.344 2.344 0 0 1 4.688.04 9.375 9.375 0 0 1-9.375 9.292H9.375A9.375 9.375 0 0 1 0 37.883V9.375Z"/><path d="M9.85 12.224a2.344 2.344 0 0 1 3.3-.31l14.187 11.748a4.18 4.18 0 0 0 5.33 0l14.188-11.748a2.344 2.344 0 1 1 2.99 3.61L39.85 23.8l9.956 7.905a2.344 2.344 0 1 1-2.915 3.671l-10.73-8.52-.504.416-1.495-1.805 1.495 1.806a8.867 8.867 0 0 1-11.311 0l-.506-.42-10.728 8.523a2.344 2.344 0 1 1-2.916-3.67l9.955-7.908-9.992-8.274a2.344 2.344 0 0 1-.31-3.3Z"/></g></symbol><symbol viewBox="0 0 60 60" id="graph_messedge" xmlns="http://www.w3.org/2000/svg"><path d="M57.129 52.439a2.344 2.344 0 0 0-1.819 2.771.105.105 0 0 1-.038.102H32.328c.006-.023.013-.046.018-.07 1.126-5.421 5.955-9.355 11.482-9.355 2.476 0 4.839.757 6.834 2.189a2.343 2.343 0 1 0 2.733-3.808 16.403 16.403 0 0 0-2.767-1.604 9.104 9.104 0 0 0 2.34-6.101c0-5.04-4.1-9.14-9.14-9.14-5.04 0-9.14 4.1-9.14 9.14 0 2.348.89 4.491 2.35 6.112A16.364 16.364 0 0 0 30 48.79a16.507 16.507 0 0 0-3.403-3.847 16.333 16.333 0 0 0-3.562-2.236 9.1 9.1 0 0 0 2.278-6.028c0-5.04-4.101-9.14-9.141-9.14s-9.14 4.1-9.14 9.14a9.1 9.1 0 0 0 2.278 6.028 16.339 16.339 0 0 0-3.563 2.236 16.51 16.51 0 0 0-5.646 9.345 4.73 4.73 0 0 0 .966 3.97A4.703 4.703 0 0 0 4.727 60h50.544c1.419 0 2.75-.635 3.651-1.744a4.775 4.775 0 0 0 .977-3.999 2.344 2.344 0 0 0-2.771-1.818Zm-13.3-20.33a4.458 4.458 0 0 1 4.452 4.454 4.458 4.458 0 0 1-4.453 4.453 4.458 4.458 0 0 1-4.453-4.453 4.458 4.458 0 0 1 4.453-4.454Zm-27.657.118a4.458 4.458 0 0 1 4.453 4.453 4.458 4.458 0 0 1-4.453 4.453 4.458 4.458 0 0 1-4.453-4.453 4.458 4.458 0 0 1 4.453-4.453ZM4.715 55.312s-.036-.018-.025-.07c1.125-5.421 5.954-9.355 11.482-9.355s10.357 3.934 11.482 9.355c.005.024.012.047.018.07H4.715ZM3.787 20.2c2.378 2.163 5.528 3.355 8.87 3.355 1.486 0 2.922-.23 4.282-.683l5.085 2.241a2.339 2.339 0 0 0 2.576-.462 2.34 2.34 0 0 0 .542-2.56l-1.684-4.166a11.23 11.23 0 0 0 1.855-6.142C25.313 5.286 19.635 0 12.656 0 5.678 0 0 5.286 0 11.783v.028c0 3.187 1.345 6.166 3.787 8.389Zm.9-8.417c0-3.913 3.575-7.095 7.97-7.095 4.393 0 7.968 3.182 7.968 7.095 0 1.559-.56 3.039-1.617 4.28a2.344 2.344 0 0 0-.39 2.398l.015.035-.68-.3a2.344 2.344 0 0 0-1.865-.01 8.69 8.69 0 0 1-3.432.681c-4.394 0-7.969-3.165-7.969-7.056v-.028ZM47.344 0c-6.979 0-12.657 5.285-12.657 11.782 0 2.169.651 4.304 1.855 6.143L34.86 22.09a2.343 2.343 0 0 0 3.117 3.023l5.085-2.24a13.53 13.53 0 0 0 4.283.682c3.342 0 6.492-1.192 8.87-3.356C58.655 17.977 60 15 60 11.811v-.029C60 5.285 54.323 0 47.344 0Zm7.969 11.811c0 3.891-3.575 7.056-7.97 7.056a8.697 8.697 0 0 1-3.431-.682 2.343 2.343 0 0 0-1.865.011l-.68.3.014-.035a2.343 2.343 0 0 0-.389-2.398c-1.058-1.241-1.617-2.721-1.617-4.28 0-3.913 3.575-7.095 7.969-7.095s7.969 3.182 7.969 7.095v.028Z"/></symbol><symbol viewBox="0 0 60 60" id="graph_method" xmlns="http://www.w3.org/2000/svg"><g clip-path="url(#axa)"><path d="M59.746 37.391a33.373 33.373 0 0 1-8.667 18.606l-.01.01-3.045 3.25a2.338 2.338 0 0 1-1.71.742 2.344 2.344 0 0 1-1.71-3.947l3.039-3.244a28.71 28.71 0 0 0 7.452-16.002 2.345 2.345 0 0 1 4.651.585Zm-10.949 2.754-5.087 5.708a2.338 2.338 0 0 1-1.751.785 2.344 2.344 0 0 1-1.75-3.904l5.101-5.723.03-.033c.35-.379.55-.843.604-1.32v-.549a2.332 2.332 0 0 0-.732-1.443 2.347 2.347 0 0 0-3.313.128l-8.607 9.37.258.277c1.837 1.985 2.849 4.58 2.783 7.125-.069 2.649-1.282 5.254-3.328 7.147l-.113.105a2.559 2.559 0 0 1-.042.038l-1.763 1.556c-.446.394-1 .587-1.55.587a2.344 2.344 0 0 1-1.552-4.101l1.835-1.625c1.125-1.04 1.79-2.436 1.826-3.828.035-1.334-.523-2.724-1.53-3.812l-11.98-12.832a2.35 2.35 0 0 0-3.32-.135c-.43.399-.689.934-.74 1.515v.42c.047.51.256.99.608 1.372l8.005 8.53a2.344 2.344 0 1 1-3.418 3.208l-8.012-8.537-.011-.012a6.986 6.986 0 0 1-1.866-5.048c.001-.034.005-.068.006-.101l-.007-14.056c-.003-.205-.003-.41 0-.615l-.004-7.38v-.07a2.182 2.182 0 0 0-.651-1.607 2.564 2.564 0 0 0-1.732-.747c-1.264-.04-2.242.901-2.294 2.188l-.003 19.771v.052c-.172 7.613 2.51 14.807 7.552 20.258l3.04 3.245a2.344 2.344 0 1 1-3.42 3.205l-3.046-3.25-.01-.01C2.943 49.654-.184 41.299.008 32.47l.004-19.785v-.069c.056-1.874.813-3.602 2.133-4.868C3.479 6.47 5.25 5.796 7.13 5.852a7.198 7.198 0 0 1 5.796 3.201 20.576 20.576 0 0 1 2.595-3.124c8.1-7.985 21.186-7.893 29.172.207A20.7 20.7 0 0 1 47.07 9.03a6.993 6.993 0 0 1 5.69-3.178c3.88-.115 7.123 2.92 7.236 6.765v.068L60 25.423a2.344 2.344 0 1 1-4.688 0l-.003-12.697a2.243 2.243 0 0 0-.718-1.565 2.373 2.373 0 0 0-1.692-.623 2.334 2.334 0 0 0-1.636.715 2.26 2.26 0 0 0-.62 1.64l.002.069-.012 21.988a7.011 7.011 0 0 1-1.836 5.195ZM43.94 28.366a15.934 15.934 0 0 0-2.584-18.939c-6.17-6.258-16.283-6.33-22.541-.16-5.087 5.016-6.18 12.92-2.743 19.1a7.018 7.018 0 0 1 5.5 2.243l5.255 5.629a16.14 16.14 0 0 0 6.487-.027l5.14-5.596a7.029 7.029 0 0 1 5.486-2.25Zm-7.488-9.74h-3.99v-4.102a2.344 2.344 0 1 0-4.688 0v4.102h-4.215a2.344 2.344 0 0 0 0 4.688h4.215v4.102a2.344 2.344 0 1 0 4.689 0v-4.102h3.989a2.344 2.344 0 1 0 0-4.688Z"/></g><defs><clipPath id="axa"><path d="M0 0h60v60H0z"/></clipPath></defs></symbol><symbol viewBox="0 0 60 54" id="graph_mrt" xmlns="http://www.w3.org/2000/svg"><g fill-rule="evenodd" clip-rule="evenodd"><path d="M.82 27C.82 12.6 12.495.925 26.896.925c11.815 0 21.79 7.857 24.995 18.626a2.267 2.267 0 0 1-4.346 1.294c-2.65-8.9-10.895-15.385-20.65-15.385C15 5.46 5.356 15.104 5.356 27c0 11.897 9.644 21.54 21.54 21.54h3.402a2.267 2.267 0 0 1 0 4.535h-3.401C12.495 53.075.82 41.401.82 27Zm15.305 3.401a2.267 2.267 0 0 1 2.268-2.267h39.34a2.267 2.267 0 0 1 0 4.535h-39.34a2.267 2.267 0 0 1-2.268-2.268Z"/><path d="M30.297 28.134a2.267 2.267 0 0 1 2.267 2.267v18.14h22.901V30.4a2.267 2.267 0 1 1 4.535 0v20.407a2.267 2.267 0 0 1-2.267 2.267H30.297a2.267 2.267 0 0 1-2.268-2.267V30.401a2.267 2.267 0 0 1 2.268-2.267Z"/><path d="M26.896 12.262c-8.125 0-14.739 6.614-14.739 14.739 0 8.124 6.614 14.738 14.739 14.738h3.4a2.267 2.267 0 0 1 0 4.535h-3.4C16.267 46.274 7.623 37.629 7.623 27c0-10.629 8.644-19.273 19.273-19.273 7.894 0 14.685 4.767 17.662 11.56a2.267 2.267 0 0 1-4.154 1.82c-2.282-5.208-7.484-8.846-13.508-8.846Z"/><path d="M26.895 22.465a2.834 2.834 0 1 0 0 5.67 2.834 2.834 0 0 0 0-5.67ZM19.526 25.3a7.369 7.369 0 1 1 14.738 0 7.369 7.369 0 0 1-14.738 0Z"/><path d="M40.5 22.465a2.834 2.834 0 1 0 0 5.67h14.965v-5.67H40.5ZM33.13 25.3c0-4.07 3.3-7.37 7.37-7.37h17.232A2.267 2.267 0 0 1 60 20.199v10.203a2.267 2.267 0 0 1-2.268 2.268H40.5a7.37 7.37 0 0 1-7.37-7.37Z"/></g></symbol><symbol viewBox="0 0 58 57" id="graph_mskt" xmlns="http://www.w3.org/2000/svg"><g fill-rule="evenodd" clip-rule="evenodd"><path d="M23.936 48.569a2.344 2.344 0 0 0 .632-2.238l-1.893-7.6a2.344 2.344 0 0 0-1.236-1.535 17.13 17.13 0 0 1-5.173-3.937 17.004 17.004 0 0 1-4.346-11.382 2.344 2.344 0 0 0-2.344-2.344H3.102a2.344 2.344 0 0 0-2.344 2.344c0 13.072 8.878 24.063 20.93 27.285a2.344 2.344 0 0 0 2.248-.593Zm-8.365-15.84ZM5.56 24.222h1.796a21.687 21.687 0 0 0 5.453 12.206 21.838 21.838 0 0 0 5.57 4.455l.574 2.306C11.64 39.735 6.391 32.626 5.56 24.221Zm28.504 24.347a2.344 2.344 0 0 0 2.248.593c12.052-3.222 20.93-14.213 20.93-27.285 0-2.434-.309-4.8-.89-7.058a2.344 2.344 0 0 0-2.27-1.76h-6.764a2.344 2.344 0 0 0-2.21 3.126 17.02 17.02 0 0 1 .972 5.692 17.003 17.003 0 0 1-4.375 11.415 17.129 17.129 0 0 1-5.144 3.904 2.344 2.344 0 0 0-1.236 1.535l-1.893 7.6c-.2.805.04 1.656.632 2.238Zm8.365-15.84Zm-3.383 10.46.574-2.307a21.837 21.837 0 0 0 5.656-4.552 21.69 21.69 0 0 0 5.491-14.453c0-1.411-.134-2.792-.391-4.13h1.818c.237 1.34.36 2.72.36 4.13 0 9.414-5.523 17.541-13.508 21.311Z"/><path d="M21.87 41.123a2.344 2.344 0 0 0 .805-2.391l-.389-1.562h13.428l-.39 1.562a2.344 2.344 0 0 0 3.314 2.667 21.817 21.817 0 0 0 6.638-5.069 21.69 21.69 0 0 0 5.492-14.453c0-2.54-.436-4.984-1.24-7.257C46.54 6.17 38.48.11 29 .11 16.978.11 7.232 9.855 7.232 21.877a21.69 21.69 0 0 0 5.578 14.55 21.815 21.815 0 0 0 6.552 4.972 2.344 2.344 0 0 0 2.509-.276Zm19.068-7.031a2.34 2.34 0 0 0-2.226-1.61H19.287a2.344 2.344 0 0 0-2.225 1.61 17.217 17.217 0 0 1-.796-.833 17.004 17.004 0 0 1-4.346-11.382c0-9.433 7.646-17.08 17.08-17.08 7.433 0 13.763 4.749 16.108 11.386v.002a17.02 17.02 0 0 1 .972 5.692 17.004 17.004 0 0 1-4.375 11.415c-.247.275-.503.542-.767.8Zm1.491-1.362Zm-26.858 0Z"/><path d="M20.182 21.877a8.818 8.818 0 1 0 17.636 0 8.818 8.818 0 0 0-17.636 0ZM29 26.007a4.13 4.13 0 1 1 0-8.261 4.13 4.13 0 0 1 0 8.262ZM20.237 48.34a2.344 2.344 0 0 0 2.275 1.78h12.977a2.344 2.344 0 0 0 2.274-1.78l2.11-8.476 1.114-4.472a2.344 2.344 0 0 0-2.275-2.91H19.288a2.344 2.344 0 0 0-2.275 2.91l3.224 12.949Zm4.107-2.908-1.669-6.7-.389-1.562h13.428l-.39 1.561-1.667 6.7h-9.313Z"/><path d="M16.944 54.25a2.344 2.344 0 0 0 2.344 2.344h19.424a2.344 2.344 0 0 0 2.344-2.344v-6.475a2.344 2.344 0 0 0-2.343-2.343H19.287a2.344 2.344 0 0 0-2.344 2.343v6.475Zm4.687-2.344V50.12H36.37v1.787H21.63Zm-9.455-17.08a2.344 2.344 0 0 0 2.344 2.344h28.96a2.344 2.344 0 0 0 2.344-2.344v-6.474a2.344 2.344 0 0 0-2.343-2.344H14.519a2.344 2.344 0 0 0-2.343 2.344v6.474Zm4.687-2.344v-1.787h24.274v1.787H16.863Zm8.468-23.554a2.344 2.344 0 0 0 2.344 2.343h2.65a2.344 2.344 0 0 0 0-4.687h-2.65a2.344 2.344 0 0 0-2.344 2.344Z"/></g></symbol><symbol viewBox="0 0 60 60" id="graph_nevrolog" xmlns="http://www.w3.org/2000/svg"><path d="m27.747 26.474.012-18.22c0-2-1.61-3.568-3.663-3.568-2.02 0-3.663 1.673-3.663 3.73v.012a4.52 4.52 0 0 1-4.519 4.51h-.46c-.814 0-1.614.338-2.196.926-.553.56-.853 1.28-.843 2.03a2.88 2.88 0 0 0 .99 2.147 2.341 2.341 0 0 1-1.2 4.073l-2.311.351c-2.928.453-5.14 3.034-5.14 6.004 0 3.35 2.73 6.077 6.088 6.077a2.345 2.345 0 0 1 2.348 2.343 2.345 2.345 0 0 1-2.348 2.343 10.81 10.81 0 0 1-2.589-.314 6.077 6.077 0 0 0-1.534 4.04c0 2.731 2.227 4.954 4.963 4.954h.209a6.82 6.82 0 0 1 6.326 4.27c.776 1.903 2.578 3.132 4.591 3.132.834 0 1.517-.127 2.088-.391a2.35 2.35 0 0 1 3.116 1.145 2.34 2.34 0 0 1-1.147 3.109c-1.201.554-2.529.823-4.057.823-3.932 0-7.44-2.375-8.94-6.052a2.142 2.142 0 0 0-1.98-1.35h-.206c-5.325 0-9.658-4.325-9.658-9.64 0-2.684.956-4.747 1.968-6.182a10.739 10.739 0 0 1-1.31-15.343 10.81 10.81 0 0 1 5.37-3.362 7.551 7.551 0 0 1-.332-2.117c-.026-2.012.755-3.924 2.197-5.382a7.84 7.84 0 0 1 5.536-2.32h.287C15.826 3.688 19.54 0 24.096 0c2.23 0 4.322.844 5.892 2.375l.119.123c.04-.041.078-.083.119-.123C31.794.844 33.886 0 36.117 0c4.555 0 8.27 3.687 8.356 8.253h.307c2.04 0 4.043.835 5.495 2.292 1.442 1.447 2.23 3.347 2.218 5.351a7.568 7.568 0 0 1-.333 2.18c3.547.953 6.434 3.697 7.522 7.245a2.342 2.342 0 0 1-1.558 2.926 2.348 2.348 0 0 1-2.932-1.555 6.11 6.11 0 0 0-4.88-4.223l-2.309-.356a2.348 2.348 0 0 1-1.895-1.656 2.34 2.34 0 0 1 .7-2.416 2.92 2.92 0 0 0 .99-2.17c.005-.748-.299-1.466-.852-2.022a3.085 3.085 0 0 0-2.166-.91h-.482a4.52 4.52 0 0 1-4.518-4.51v-.014c0-2.056-1.643-3.73-3.663-3.73-2.054 0-3.663 1.569-3.663 3.57l-.013 18.222a2.345 2.345 0 0 1-2.347 2.341h-.002a2.345 2.345 0 0 1-2.345-2.344Zm32.406 17.69c0 8.72-7.108 15.814-15.845 15.814-8.737 0-15.845-7.094-15.845-15.814 0-8.72 7.108-15.814 15.845-15.814 8.737 0 15.845 7.094 15.845 15.814Zm-4.695 0c0-6.136-5.002-11.129-11.15-11.129-6.148 0-11.15 4.993-11.15 11.129 0 6.136 5.002 11.128 11.15 11.128 6.148 0 11.15-4.992 11.15-11.128Zm-6.455-2.343h-2.347v-2.343a2.346 2.346 0 0 0-2.348-2.343 2.345 2.345 0 0 0-2.347 2.343v2.343h-2.348a2.345 2.345 0 0 0-2.347 2.343 2.345 2.345 0 0 0 2.347 2.343h2.348v2.342a2.345 2.345 0 0 0 2.347 2.343 2.345 2.345 0 0 0 2.348-2.343v-2.342h2.347a2.345 2.345 0 0 0 2.347-2.343 2.346 2.346 0 0 0-2.347-2.343Z"/></symbol><symbol viewBox="0 0 60 46" id="graph_okulist" xmlns="http://www.w3.org/2000/svg"><g fill-rule="evenodd" clip-rule="evenodd"><path d="M.615 31.627c0 7.763 6.357 14.045 14.139 14.045 7.781 0 14.138-6.282 14.138-14.045s-6.357-14.045-14.138-14.045C6.972 17.582.615 23.864.615 31.627Zm14.139 9.65c-5.387 0-9.744-4.347-9.744-9.65s4.357-9.65 9.744-9.65 9.744 4.347 9.744 9.65-4.357 9.65-9.744 9.65Z"/><path d="M3.012 28.657a2.197 2.197 0 0 0 2.907-1.1L15.83 5.59l.005-.01a1.521 1.521 0 0 1 2.045-.738 2.197 2.197 0 1 0 1.9-3.964c-2.992-1.434-6.6-.131-7.957 2.908a.141.141 0 0 0-.002.005l-9.908 21.96a2.197 2.197 0 0 0 1.1 2.906Zm53.903 0a2.197 2.197 0 0 0 1.099-2.907L48.106 3.791l-.002-.005C46.747.746 43.139-.556 40.147.878a2.197 2.197 0 1 0 1.9 3.963 1.522 1.522 0 0 1 2.05.748l9.911 21.968a2.197 2.197 0 0 0 2.907 1.1Zm-32.24 2.97c0 1.213.984 2.197 2.197 2.197h6.144a2.197 2.197 0 1 0 0-4.394h-6.144a2.197 2.197 0 0 0-2.197 2.197Z"/><path d="M45.173 41.277c-5.387 0-9.744-4.347-9.744-9.65s4.357-9.65 9.744-9.65c5.388 0 9.744 4.347 9.744 9.65v.002a9.52 9.52 0 0 1-.392 2.715 2.197 2.197 0 1 0 4.213 1.25 13.93 13.93 0 0 0 .574-3.969c0-7.762-6.357-14.043-14.139-14.043-7.781 0-14.138 6.282-14.138 14.045 0 7.762 6.357 14.045 14.138 14.045 1.329 0 2.618-.184 3.842-.527a2.197 2.197 0 1 0-1.188-4.231 9.804 9.804 0 0 1-2.654.363Z"/></g></symbol><symbol viewBox="0 0 60 60" id="graph_personal" xmlns="http://www.w3.org/2000/svg"><path d="M11.812 18.75c3.87 0 7.018-3.154 7.018-7.031 0-3.878-3.148-7.031-7.018-7.031-3.87 0-7.017 3.153-7.017 7.03 0 3.878 3.147 7.032 7.017 7.032Zm0-9.375a2.344 2.344 0 0 1 0 4.688 2.344 2.344 0 0 1 0-4.688Zm36.491 9.375c3.87 0 7.018-3.154 7.018-7.031 0-3.878-3.148-7.031-7.018-7.031-3.87 0-7.017 3.153-7.017 7.03 0 3.878 3.148 7.032 7.017 7.032Zm0-9.375a2.344 2.344 0 0 1 0 4.688 2.344 2.344 0 0 1 0-4.688ZM60 28.008V38.32a7.043 7.043 0 0 1-4.678 6.63v12.706A2.341 2.341 0 0 1 52.98 60a2.341 2.341 0 0 1-2.339-2.344V43.008a2.341 2.341 0 0 1 2.34-2.344 2.344 2.344 0 0 0 2.339-2.344V28.008a2.344 2.344 0 0 0-2.34-2.344h-4.21a2.341 2.341 0 0 1-2.34-2.344 2.341 2.341 0 0 1 2.34-2.343h4.21c3.87 0 7.018 3.154 7.018 7.03Zm-14.035 15v14.648A2.341 2.341 0 0 1 43.624 60a2.341 2.341 0 0 1-2.338-2.344V44.95a7.053 7.053 0 0 1-3.393-2.579 6.93 6.93 0 0 1-.818.352v14.933A2.341 2.341 0 0 1 34.736 60a2.341 2.341 0 0 1-2.34-2.344V40.781a2.341 2.341 0 0 1 2.34-2.343c1.29 0 2.34-1.052 2.34-2.344V23.32a2.344 2.344 0 0 0-2.34-2.343h-9.357a2.344 2.344 0 0 0-2.339 2.343v12.774a2.344 2.344 0 0 0 2.34 2.343 2.342 2.342 0 0 1 2.338 2.344v16.875A2.341 2.341 0 0 1 25.38 60a2.341 2.341 0 0 1-2.339-2.344V42.724a6.938 6.938 0 0 1-.818-.353 7.052 7.052 0 0 1-3.392 2.58v12.705A2.341 2.341 0 0 1 16.49 60a2.341 2.341 0 0 1-2.339-2.344V43.008a2.341 2.341 0 0 1 2.34-2.344 2.343 2.343 0 0 0 2.324-2.086 7.013 7.013 0 0 1-.453-2.484V23.32c0-3.877 3.148-7.03 7.017-7.03h9.357c3.87 0 7.018 3.153 7.018 7.03v12.774c0 .874-.161 1.711-.453 2.484a2.343 2.343 0 0 0 2.324 2.086c1.292 0 2.34 1.05 2.34 2.344ZM13.684 23.32a2.341 2.341 0 0 1-2.34 2.344h-4.21a2.344 2.344 0 0 0-2.34 2.344V38.32a2.344 2.344 0 0 0 2.34 2.344 2.342 2.342 0 0 1 2.339 2.344v14.648A2.341 2.341 0 0 1 7.133 60a2.341 2.341 0 0 1-2.338-2.344V44.95a7.043 7.043 0 0 1-4.679-6.63V28.008c0-3.877 3.148-7.031 7.018-7.031h4.21a2.342 2.342 0 0 1 2.34 2.343Zm16.374-9.258c3.87 0 7.017-3.153 7.017-7.03C37.075 3.153 33.927 0 30.058 0c-3.87 0-7.018 3.154-7.018 7.031 0 3.878 3.148 7.032 7.018 7.032Zm0-9.374a2.344 2.344 0 0 1 0 4.687 2.344 2.344 0 0 1 0-4.688Z"/></symbol><symbol viewBox="0 0 60 60" id="graph_phone" xmlns="http://www.w3.org/2000/svg"><path d="m31.406 7.16.117-.001c5.712 0 11.064 2.208 15.08 6.225 4.05 4.05 6.265 9.447 6.238 15.199a2.344 2.344 0 0 0 2.333 2.355h.011a2.344 2.344 0 0 0 2.343-2.333c.034-7.012-2.669-13.595-7.61-18.536-4.902-4.903-11.43-7.598-18.394-7.598h-.129a2.344 2.344 0 0 0 .011 4.688Zm28.588 41.186a8.876 8.876 0 0 0-2.722-6.099c-3.273-3.156-6.015-4.978-8.63-5.733-3.604-1.042-6.94-.095-9.92 2.814l-.013.013-3.172 3.148c-1.97-1.106-5.8-3.542-9.988-7.73l-.308-.309c-4.162-4.16-6.613-8.012-7.728-9.99l3.146-3.17.013-.013c2.909-2.978 3.855-6.315 2.814-9.919-.755-2.614-2.577-5.357-5.734-8.63A8.875 8.875 0 0 0 11.654.006a8.877 8.877 0 0 0-6.28 2.276l-.066.06a2.28 2.28 0 0 0-.092.087C1.776 5.869-.028 10.686 0 16.358c.048 9.635 5.344 20.654 14.166 29.476l.022.022a57.203 57.203 0 0 0 5.597 4.87 2.344 2.344 0 0 0 2.852-3.719 52.41 52.41 0 0 1-5.178-4.51C9.503 34.534 4.729 24.756 4.688 16.335c-.022-4.368 1.292-8.014 3.8-10.548l.018-.016a4.216 4.216 0 0 1 5.872.212c6.068 6.292 5.629 9.263 2.948 12.013l-4.345 4.377a2.344 2.344 0 0 0-.477 2.605c.11.247 2.778 6.143 9.423 12.789l.308.308c6.645 6.644 12.54 9.312 12.789 9.422a2.343 2.343 0 0 0 2.604-.477l4.377-4.344c2.75-2.682 5.72-3.122 12.014 2.947a4.216 4.216 0 0 1 .212 5.871l-.017.019c-2.514 2.487-6.12 3.8-10.441 3.8h-.107c-3.454-.017-7.453-.964-11.566-2.737a2.344 2.344 0 1 0-1.856 4.304c4.753 2.05 9.261 3.1 13.398 3.12l.132.001c5.615 0 10.383-1.802 13.797-5.216.03-.03.059-.06.087-.091l.06-.068a8.876 8.876 0 0 0 2.276-6.279Z"/><path d="M43.296 16.705c-2.514-2.514-4.927-3.182-6.087-3.502a2.343 2.343 0 1 0-1.25 4.518c.95.262 2.382.658 4.022 2.298 1.58 1.58 1.999 3.004 2.276 3.948l.034.114a2.345 2.345 0 0 0 4.495-1.33l-.032-.108c-.361-1.228-1.034-3.515-3.458-5.938Z"/></symbol><symbol viewBox="0 0 60 60" id="graph_rukopojatie" xmlns="http://www.w3.org/2000/svg"><g clip-path="url(#bea)"><path d="M58.047 30.217a2.22 2.22 0 0 0-.138-.128L42.144 16.64a12.323 12.323 0 0 0-7.994-2.948h-.042a12.242 12.242 0 0 0-8.676 3.619l-2.127 2.13a2.35 2.35 0 0 1-3.281.033 2.281 2.281 0 0 1-.689-1.64A2.501 2.501 0 0 1 20.11 16l4.611-4.931a19.982 19.982 0 0 1 13.724-6.296l17.73 14.483a2.34 2.34 0 0 0 3.297-.335 2.352 2.352 0 0 0-.336-3.305L40.738.587a2.343 2.343 0 0 0-1.48-.528c-4.41 0-8.721 1.204-12.471 3.409A24.52 24.52 0 0 0 14.302.058c-.622 0-1.218.248-1.657.688L.687 12.722a2.352 2.352 0 0 0 0 3.32 2.333 2.333 0 0 0 3.314 0L15.25 4.78c2.551.12 5.04.731 7.348 1.792-.447.412-.88.84-1.298 1.286l-4.588 4.907a7.23 7.23 0 0 0-2.063 5.116 6.946 6.946 0 0 0 2.124 4.978 6.987 6.987 0 0 0 4.938 1.967 6.982 6.982 0 0 0 4.909-2.063l2.126-2.13a7.588 7.588 0 0 1 5.378-2.244h.026a7.64 7.64 0 0 1 4.955 1.828l15.68 13.378a2.002 2.002 0 0 1-.053 2.768 1.976 1.976 0 0 1-1.408.579 1.973 1.973 0 0 1-1.409-.58l-.48-.481a2.34 2.34 0 0 0-3.315 0 2.352 2.352 0 0 0 0 3.32l.48.482c.142.143.29.276.442.403.067.091.14.18.221.261a2.001 2.001 0 0 1 0 2.824 1.991 1.991 0 0 1-2.835-.019l-.777-.773a2.34 2.34 0 0 0-3.314 0 2.35 2.35 0 0 0 0 3.321l.535.537c.406.406.65.986.672 1.589.01.329-.04.949-.504 1.413-.733.736-2.003.66-2.83-.169a2.25 2.25 0 0 0-.136-.126l-.352-.3a2.34 2.34 0 0 0-3.242.193 2.352 2.352 0 0 0 .064 3.254c.391.392.61.904.616 1.443a1.9 1.9 0 0 1-.555 1.376c-.777.778-2.056.762-2.86-.043l-.331-.33a6.83 6.83 0 0 0-1.517-7.31 6.929 6.929 0 0 0-3.12-1.812 6.695 6.695 0 0 0-1.885-5.69 6.643 6.643 0 0 0-4.156-1.932 6.596 6.596 0 0 0-1.938-4.174 6.642 6.642 0 0 0-4.182-1.934 6.667 6.667 0 0 0-1.93-4.191 6.678 6.678 0 0 0-9.43-.017L1.98 30.644l-.029.029A6.654 6.654 0 0 0 0 35.405c0 1.79.693 3.472 1.951 4.732a6.636 6.636 0 0 0 3.521 1.848 6.681 6.681 0 0 0 1.948 4.96 6.397 6.397 0 0 0 4.572 1.88h.099a6.63 6.63 0 0 0 1.881 3.806 6.627 6.627 0 0 0 5.14 1.932 6.837 6.837 0 0 0 1.894 3.621 6.77 6.77 0 0 0 4.806 1.992 6.77 6.77 0 0 0 4.711-1.902 6.723 6.723 0 0 0 4.688 1.902 6.627 6.627 0 0 0 4.708-1.947 6.548 6.548 0 0 0 1.872-3.794c1.668-.003 3.316-.626 4.564-1.877 1.096-1.098 1.74-2.541 1.857-4.124a6.619 6.619 0 0 0 4.366-1.945 6.683 6.683 0 0 0 1.948-4.962 6.612 6.612 0 0 0 3.52-1.846c2.605-2.609 2.605-6.855 0-9.464Zm-49.935 6.57-.03.03a1.973 1.973 0 0 1-1.408.579 1.973 1.973 0 0 1-1.986-1.99c0-.532.2-1.028.566-1.4l3.27-3.165.03-.028c.373-.374.873-.58 1.409-.58a1.976 1.976 0 0 1 1.987 1.991c0 .446-.144.867-.406 1.211a5.911 5.911 0 0 0-.182.173L8.958 35.97l-.846.818Zm5.385 6.745c-.82.758-2.056.801-2.762.093a2.002 2.002 0 0 1-.007-2.817l1.5-1.474 2.428-2.348.03-.03c.063-.063.123-.127.182-.192a1.99 1.99 0 0 1 2.616.174c.772.773.777 1.892.013 2.665l-4 3.929Zm6.65 5.735a.357.357 0 0 0-.008.009c-.796.798-2.076.813-2.852.035-.776-.777-.761-2.056.031-2.854l3.434-3.405.009-.009a1.973 1.973 0 0 1 1.409-.579c.535 0 1.035.205 1.408.58a2 2 0 0 1 .004 2.819l-3.434 3.404Zm8.436 4.268-.03.03-1.262 1.31a2.109 2.109 0 0 1-2.97-.011 2.181 2.181 0 0 1-.636-1.529 2.045 2.045 0 0 1 .588-1.48l1.407-1.41a1.905 1.905 0 0 1 1.36-.562c.545 0 1.103.223 1.542.663a2.12 2.12 0 0 1 0 2.99Z"/></g><defs><clipPath id="bea"><path d="M0 0h60v60H0z"/></clipPath></defs></symbol><symbol viewBox="0 0 60 60" id="graph_time" xmlns="http://www.w3.org/2000/svg"><g fill-rule="evenodd" clip-rule="evenodd"><path d="M29.998 8.403a2.344 2.344 0 0 1 2.344 2.344v.713a2.344 2.344 0 0 1-4.688 0v-.713a2.344 2.344 0 0 1 2.344-2.344ZM14.726 14.73a2.344 2.344 0 0 1 3.315 0l.504.504a2.344 2.344 0 0 1-3.315 3.315l-.504-.504a2.344 2.344 0 0 1 0-3.315Zm30.544 0c.915.915.915 2.4 0 3.315l-.505.504a2.344 2.344 0 0 1-3.314-3.315l.504-.504a2.344 2.344 0 0 1 3.315 0Zm-15.272 3.88a2.344 2.344 0 0 1 2.344 2.343v8.078l4.684 4.684a2.344 2.344 0 1 1-3.315 3.315l-5.37-5.371a2.344 2.344 0 0 1-.687-1.657v-9.049a2.344 2.344 0 0 1 2.344-2.343ZM8.4 30a2.344 2.344 0 0 1 2.344-2.344h.713a2.344 2.344 0 1 1 0 4.687h-.713A2.344 2.344 0 0 1 8.4 30.001Zm37.795 0a2.344 2.344 0 0 1 2.343-2.344h.714a2.344 2.344 0 1 1 0 4.687h-.714A2.344 2.344 0 0 1 46.195 30Zm-27.65 11.453a2.344 2.344 0 0 1 0 3.314l-.504.504a2.344 2.344 0 1 1-3.315-3.314l.504-.504a2.344 2.344 0 0 1 3.315 0Zm22.906 0a2.344 2.344 0 0 1 3.314 0l.505.504a2.344 2.344 0 0 1-3.315 3.314l-.504-.504a2.344 2.344 0 0 1 0-3.314Zm-11.453 4.744a2.344 2.344 0 0 1 2.344 2.343v.713a2.344 2.344 0 0 1-4.688 0v-.713a2.344 2.344 0 0 1 2.344-2.343Z"/><path d="M0 30C0 13.431 13.431 0 30 0c16.569 0 30 13.431 30 30 0 5.98-1.753 11.56-4.773 16.242a2.344 2.344 0 1 1-3.939-2.541A25.183 25.183 0 0 0 55.313 30C55.313 16.02 43.98 4.687 30 4.687 16.02 4.688 4.687 16.02 4.687 30 4.688 43.98 16.02 55.313 30 55.313c5.053 0 9.753-1.479 13.7-4.025a2.344 2.344 0 1 1 2.542 3.94A29.871 29.871 0 0 1 30 60C13.431 60 0 46.569 0 30Z"/></g></symbol><symbol viewBox="0 0 57 60" id="graph_urolog" xmlns="http://www.w3.org/2000/svg"><path d="M46.981 32.258c-3.037-2.904-6.724-5.036-10.958-6.338-.919-.282-1.85-.52-2.791-.714 2.96-2.45 4.773-6.132 4.977-10.126.206-4.02-1.208-7.809-3.98-10.668-2.79-2.877-6.744-4.483-10.837-4.41C19.106.081 12.935 1.24 7.871 6.315 2.687 11.51.059 19.477.059 29.998c0 10.52 2.627 18.487 7.81 23.682 5.061 5.075 11.232 6.236 15.517 6.315.095.002.19.002.286.002h.125a12.582 12.582 0 0 0 5.78-1.453 2.342 2.342 0 0 0 .97-3.17 2.35 2.35 0 0 0-3.177-.967 7.744 7.744 0 0 1-3.611.902h-.286C17.845 55.203 4.755 52.53 4.755 30c0-22.535 13.094-25.208 18.723-25.31 2.843-.053 5.46 1.006 7.375 2.982 1.858 1.915 2.804 4.461 2.665 7.169-.139 2.717-1.361 5.2-3.354 6.815-.617.5-1.493.986-2.42 1.502-2.666 1.483-6.316 3.512-6.316 7.895 0 4.95 2.53 6.748 4.977 8.488l.463.33c2.324 1.668 4.411 3.504 4.411 7.59a2.346 2.346 0 0 0 2.348 2.343 2.346 2.346 0 0 0 2.349-2.343c0-3.565-1.173-6.108-2.587-7.937a19.151 19.151 0 0 1 3.618 1.772c5.168 3.269 7.788 8.773 7.788 16.36A2.346 2.346 0 0 0 47.145 60a2.346 2.346 0 0 0 2.347-2.344c0-4.953-.988-9.277-2.936-12.85-1.669-3.06-4.035-5.572-7.035-7.47-4.885-3.09-10.27-3.77-12.933-3.907-.327-.589-.463-1.303-.463-2.376 0-.68.27-1.23.823-1.77 4.847-.116 11.687 1.486 16.784 6.36 5.147 4.921 7.757 12.328 7.757 22.013A2.346 2.346 0 0 0 53.837 60a2.346 2.346 0 0 0 2.349-2.344c0-11.012-3.097-19.557-9.205-25.398Z"/></symbol><symbol viewBox="0 0 60 60" id="graph_uzi" xmlns="http://www.w3.org/2000/svg"><path d="M58.837 16.407a2.342 2.342 0 0 1-3.206-.844 34.487 34.487 0 0 0-4.13-5.693 11.152 11.152 0 0 0-.552-.597 10.675 10.675 0 0 0-.542-.495c-1.766-1.59-3.759-3.005-6.092-4.326a2.351 2.351 0 0 1-.887-3.2 2.341 2.341 0 0 1 3.194-.889c2.625 1.487 4.883 3.092 6.9 4.906.141.123.525.46.786.727.267.261.603.646.726.787a39.196 39.196 0 0 1 4.646 6.412 2.35 2.35 0 0 1-.843 3.212Zm-11.31 18.82a2.352 2.352 0 0 1-1.53 2.329c-.132.049-13.17 4.866-14.906 5.55a2.34 2.34 0 0 1-2.452-.465l-.82-.764a2.903 2.903 0 0 1-.077-.075l-8.297-8.468a21.062 21.062 0 0 1-1.507 2.006L8.155 46.894a3.541 3.541 0 0 0 .073 4.754 3.526 3.526 0 0 0 4.727.088l.018-.015 7.425-6.311a2.34 2.34 0 0 1 3.303.272c.838.988.716 2.47-.27 3.31l-7.417 6.303a8.193 8.193 0 0 1-8.991 1.165L4 59.488a2.334 2.334 0 0 1-1.657.688 2.35 2.35 0 0 1-1.657-4.009l2.933-2.94a8.237 8.237 0 0 1 .968-9.379l9.775-11.546c1.023-1.208 1.811-2.465 2.343-3.736.809-1.937 5.543-14.64 5.59-14.77a2.349 2.349 0 0 1 2.322-1.523c.354.02 8.75.536 15.417 6.524.11.096.337.296.51.473.175.173.375.4.47.51 5.977 6.68 6.492 15.092 6.511 15.447Zm-4.91-1.428c-.439-2.438-1.684-7.084-5.104-10.897a6.738 6.738 0 0 0-.32-.349 6.927 6.927 0 0 0-.274-.247c-3.839-3.455-8.459-4.692-10.882-5.122-1.091 2.92-3.267 8.733-4.406 11.677l9.15 9.338c2.87-1.08 8.851-3.295 11.837-4.4Zm5.199-20.711a12.488 12.488 0 0 0-.62-.671 12.71 12.71 0 0 0-.669-.62 32.355 32.355 0 0 0-3.747-2.895 2.341 2.341 0 0 0-3.248.664 2.35 2.35 0 0 0 .663 3.254 27.592 27.592 0 0 1 3.217 2.486l.034.03a8.974 8.974 0 0 1 .48.444 9.242 9.242 0 0 1 .388.43 28.033 28.033 0 0 1 3.101 4.204 2.341 2.341 0 0 0 3.22.792 2.35 2.35 0 0 0 .79-3.225 32.768 32.768 0 0 0-3.61-4.893h.001Z"/></symbol><symbol viewBox="0 0 60 60" id="graph_vaccine" xmlns="http://www.w3.org/2000/svg"><g fill-rule="evenodd" clip-rule="evenodd"><path d="M36.618.686a2.344 2.344 0 0 1 3.314.001l19.354 19.374a2.344 2.344 0 0 1-3.317 3.313l-4.659-4.665-3.938 3.942 4.663 4.668a2.344 2.344 0 0 1-3.316 3.313L29.365 11.259a2.344 2.344 0 0 1 3.317-3.313l4.238 4.242 3.938-3.942L36.616 4a2.344 2.344 0 0 1 .002-3.314Zm3.615 14.819 3.826 3.83 3.938-3.942-3.826-3.83m-20.259 6.52a2.344 2.344 0 0 1 3.315 0l3.56 3.56a2.344 2.344 0 0 1-3.314 3.315l-3.56-3.56a2.344 2.344 0 0 1 0-3.315ZM11.195 31.169a2.344 2.344 0 0 1 2.344-2.343h30.666a2.344 2.344 0 1 1 0 4.687H13.539a2.344 2.344 0 0 1-2.344-2.344Zm3.71 13.942c.916.914.917 2.398.002 3.314L4.03 59.313A2.344 2.344 0 0 1 .714 56l10.877-10.888a2.344 2.344 0 0 1 3.314-.001Z"/><path d="M32.976 9.213c.622 0 1.219.247 1.658.687l15.448 15.464a2.344 2.344 0 0 1 0 3.313l-13.84 13.855a2.344 2.344 0 0 1-3.316-3.313L45.11 27.02 32.976 14.873l-20.479 20.5a4.563 4.563 0 0 0 0 6.45l-1.652 1.65 1.652-1.65 5.694 5.699a4.552 4.552 0 0 0 6.44 0l.001-.001.013-.012a2.344 2.344 0 1 1 3.314 3.314l-.011.012h-.001a9.24 9.24 0 0 1-13.073 0l1.658-1.657-1.658 1.657-5.693-5.7 1.658-1.656-1.658 1.656a9.25 9.25 0 0 1 0-13.075l1.633 1.631-1.633-1.63L31.318 9.9a2.344 2.344 0 0 1 1.658-.688Z"/></g></symbol><symbol viewBox="0 0 20 20" id="image" xmlns="http://www.w3.org/2000/svg"><g clip-path="url(#bja)"><mask id="bjb"><path d="M15.833 0H4.167A4.172 4.172 0 0 0 0 4.167v11.666A4.172 4.172 0 0 0 4.167 20h11.666A4.172 4.172 0 0 0 20 15.833V4.167A4.172 4.172 0 0 0 15.833 0ZM4.167 1.667h11.666a2.5 2.5 0 0 1 2.5 2.5v11.666a2.459 2.459 0 0 1-.25 1.071l-7.635-7.636a4.166 4.166 0 0 0-5.894 0l-2.887 2.887V4.167a2.5 2.5 0 0 1 2.5-2.5Zm0 16.666a2.5 2.5 0 0 1-2.5-2.5v-1.321l4.065-4.065a2.5 2.5 0 0 1 3.536 0l7.636 7.636c-.333.163-.7.249-1.07.25H4.166Z"/></mask><path d="M15.833 0H4.167A4.172 4.172 0 0 0 0 4.167v11.666A4.172 4.172 0 0 0 4.167 20h11.666A4.172 4.172 0 0 0 20 15.833V4.167A4.172 4.172 0 0 0 15.833 0ZM4.167 1.667h11.666a2.5 2.5 0 0 1 2.5 2.5v11.666a2.459 2.459 0 0 1-.25 1.071l-7.635-7.636a4.166 4.166 0 0 0-5.894 0l-2.887 2.887V4.167a2.5 2.5 0 0 1 2.5-2.5Zm0 16.666a2.5 2.5 0 0 1-2.5-2.5v-1.321l4.065-4.065a2.5 2.5 0 0 1 3.536 0l7.636 7.636c-.333.163-.7.249-1.07.25H4.166Z"/><path d="M15.833 0v21.333h21.334V0H15.833ZM4.167 0v-21.333H4.14L4.167 0ZM0 4.167l-21.333-.026v.026H0Zm0 11.666h-21.333v.026L0 15.833ZM4.167 20 4.14 41.333h.026V20Zm11.666 0v21.333h.026L15.833 20ZM20 15.833l21.333.026v-.026H20Zm0-11.666h21.333V4.14L20 4.167ZM15.833 0l.026-21.333L-5.5-21.36V0h21.333Zm2.5 4.167h21.334-21.334Zm0 11.666 21.334.083v-.083H18.333Zm-.25 1.071L2.998 31.99l21.125 21.125 13.125-26.838-19.165-9.372Zm-7.635-7.636L-4.64 24.351l.002.002L10.447 9.268Zm-5.894 0 15.083 15.087.004-.004L4.554 9.268Zm-2.887 2.887h-21.334v51.493L16.75 27.242 1.667 12.155Zm0-7.988h-21.334H1.667Zm2.5 14.166v21.334-21.334Zm-2.5-2.5h-21.334H1.667Zm0-1.321L-13.418-.573l-6.249 6.248v8.837H1.667Zm4.065-4.065 15.085 15.085.004-.005-15.09-15.08Zm3.536 0-15.09 15.08.005.004L9.268 10.447Zm7.636 7.636 9.372 19.165 26.836-13.124L31.99 2.999 16.904 18.083Zm-1.07.25v21.334h.082l-.083-21.334Zm0-39.666H4.166v42.666h11.666v-42.666Zm-11.693 0a25.505 25.505 0 0 0-18.004 7.47l30.17 30.17a17.161 17.161 0 0 1-12.115 5.026l-.05-42.666Zm-18.004 7.47a25.505 25.505 0 0 0-7.47 18.004l42.666.051a17.161 17.161 0 0 1-5.026 12.115l-30.17-30.17Zm-7.47 18.03v11.666h42.666V4.167h-42.666Zm0 11.692a25.505 25.505 0 0 0 7.47 18.004l30.17-30.17a17.162 17.162 0 0 1 5.026 12.115l-42.666.05Zm7.47 18.004a25.505 25.505 0 0 0 18.004 7.47l.051-42.666a17.162 17.162 0 0 1 12.115 5.026l-30.17 30.17Zm18.03 7.47h11.666V-1.333H4.167v42.666Zm11.692 0a25.505 25.505 0 0 0 18.004-7.47L3.693 3.693a17.162 17.162 0 0 1 12.115-5.026l.05 42.666Zm18.004-7.47a25.505 25.505 0 0 0 7.47-18.004l-42.666-.051A17.162 17.162 0 0 1 3.693 3.693l30.17 30.17Zm7.47-18.03V4.167H-1.333v11.666h42.666Zm0-11.692a25.505 25.505 0 0 0-7.47-18.004l-30.17 30.17A17.162 17.162 0 0 1-1.333 4.192l42.666-.05Zm-7.47-18.004a25.505 25.505 0 0 0-18.004-7.47l-.051 42.666a17.162 17.162 0 0 1-12.115-5.026l30.17-30.17ZM-5.5 0h42.667H-5.5Zm9.667 23h11.666v-42.667H4.167V23Zm11.666 0a18.833 18.833 0 0 1-13.317-5.516l30.17-30.17a23.833 23.833 0 0 0-16.853-6.98V23ZM2.516 17.484A18.833 18.833 0 0 1-3 4.167h42.667a23.833 23.833 0 0 0-6.981-16.853l-30.17 30.17ZM-3 4.167v11.666h42.667V4.167H-3Zm0 11.584c.011-2.85.667-5.66 1.919-8.219l38.329 18.744a23.792 23.792 0 0 0 2.419-10.36L-3 15.75ZM33.168 1.819l-7.636-7.636-30.17 30.17 7.636 7.636 30.17-30.17Zm-7.634-7.634a25.5 25.5 0 0 0-8.273-5.53L.93 28.075a17.168 17.168 0 0 1-5.57-3.723L25.534-5.815Zm-8.273-5.53a25.5 25.5 0 0 0-9.76-1.94V29.38a17.16 17.16 0 0 1-6.57-1.307l16.33-39.418Zm-9.76-1.94a25.5 25.5 0 0 0-9.76 1.94l16.33 39.419a17.167 17.167 0 0 1-6.57 1.307v-42.667Zm-9.76 1.94a25.502 25.502 0 0 0-8.274 5.53l30.174 30.166a17.168 17.168 0 0 1-5.57 3.723l-16.33-39.418Zm-8.27 5.526-2.887 2.887 30.165 30.174 2.888-2.887L-10.53-5.819ZM23 12.155V4.167h-42.667v7.988H23Zm0-7.988c0 4.995-1.984 9.785-5.516 13.317l-30.17-30.17a23.833 23.833 0 0 0-6.98 16.853H23Zm-5.516 13.317A18.833 18.833 0 0 1 4.167 23v-42.667a23.833 23.833 0 0 0-16.853 6.981l30.17 30.17ZM4.167-3c4.995 0 9.785 1.984 13.317 5.516l-30.17 30.17a23.833 23.833 0 0 0 16.853 6.98V-3Zm13.317 5.516A18.833 18.833 0 0 1 23 15.833h-42.667a23.833 23.833 0 0 0 6.981 16.853l30.17-30.17ZM23 15.833v-1.321h-42.667v1.321H23Zm-6.248 13.764 4.065-4.065-30.17-30.17-4.065 4.065 30.17 30.17Zm4.07-4.07a18.833 18.833 0 0 1-6.112 4.085L-1.624-9.804a23.833 23.833 0 0 0-7.734 5.17l30.18 30.16Zm-6.112 4.085a18.832 18.832 0 0 1-7.21 1.435v-42.666c-3.131 0-6.232.617-9.124 1.815L14.71 29.612ZM7.5 31.047a18.82 18.82 0 0 1-7.21-1.435L16.624-9.804A23.833 23.833 0 0 0 7.5-11.62v42.667ZM.29 29.612a18.833 18.833 0 0 1-6.111-4.085l30.18-30.16a23.833 23.833 0 0 0-7.735-5.17L.29 29.611Zm-6.107-4.081 7.635 7.636L31.99 3l-7.636-7.636L-5.817 25.53ZM7.533-1.081A18.874 18.874 0 0 1 15.75-3l.165 42.666a23.792 23.792 0 0 0 10.36-2.418L7.532-1.082ZM15.832-3H4.167v42.667h11.666V-3Z" mask="url(#bjb)"/><path d="M13.334 8.75a2.917 2.917 0 1 0 0-5.834 2.917 2.917 0 0 0 0 5.834Zm0-4.167a1.25 1.25 0 1 1 0 2.5 1.25 1.25 0 0 1 0-2.5Z"/></g><defs><clipPath id="bja"><path d="M0 0h20v20H0z"/></clipPath></defs></symbol><symbol viewBox="0 0 24 24" id="instagram" xmlns="http://www.w3.org/2000/svg"><path d="M12 2c-2.715 0-3.056.012-4.123.06-1.064.05-1.791.218-2.427.465a4.897 4.897 0 0 0-1.77 1.153A4.909 4.909 0 0 0 2.525 5.45c-.248.636-.417 1.363-.465 2.427C2.013 8.943 2 9.284 2 12s.012 3.056.06 4.122c.05 1.065.218 1.791.465 2.427a4.9 4.9 0 0 0 1.153 1.772 4.896 4.896 0 0 0 1.771 1.154c.636.247 1.363.416 2.428.465 1.066.048 1.407.06 4.123.06s3.055-.012 4.122-.06c1.065-.05 1.792-.218 2.428-.465a4.892 4.892 0 0 0 1.77-1.154 4.909 4.909 0 0 0 1.155-1.771c.246-.637.414-1.363.464-2.428.048-1.066.06-1.406.06-4.122s-.012-3.057-.06-4.123c-.05-1.065-.218-1.792-.464-2.427a4.908 4.908 0 0 0-1.154-1.772 4.887 4.887 0 0 0-1.771-1.153c-.638-.247-1.365-.416-2.43-.465-1.066-.048-1.406-.06-4.122-.06H12Zm-.896 1.802H12c2.67 0 2.986.01 4.04.058.976.044 1.505.207 1.857.344.467.181.8.398 1.15.748.35.35.566.683.748 1.15.137.352.3.881.344 1.856.048 1.054.058 1.371.058 4.04 0 2.668-.01 2.985-.058 4.04-.045.974-.207 1.503-.344 1.855a3.091 3.091 0 0 1-.749 1.15c-.35.35-.682.566-1.149.747-.352.138-.881.3-1.857.345-1.054.048-1.37.058-4.04.058s-2.987-.01-4.041-.058c-.975-.045-1.504-.208-1.857-.345a3.098 3.098 0 0 1-1.15-.748 3.1 3.1 0 0 1-.748-1.15c-.137-.351-.3-.88-.345-1.855-.048-1.055-.057-1.371-.057-4.042 0-2.67.01-2.985.057-4.04.045-.974.208-1.504.345-1.856.18-.467.398-.8.748-1.15.35-.35.683-.567 1.15-.748.352-.138.882-.3 1.857-.345.922-.042 1.28-.054 3.144-.056v.002Zm6.235 1.66a1.2 1.2 0 1 0 0 2.402 1.2 1.2 0 0 0 0-2.402ZM12 6.866a5.136 5.136 0 1 0 0 10.27 5.136 5.136 0 0 0 0-10.27Zm0 1.802a3.333 3.333 0 1 1 0 6.666 3.333 3.333 0 0 1 0-6.666Z"/></symbol><symbol viewBox="0 0 24 24" id="location" xmlns="http://www.w3.org/2000/svg"><g fill-rule="evenodd" clip-rule="evenodd"><path d="M12 3a7 7 0 0 0-7 7.2c0 3.273 1.796 5.984 3.713 7.937A20.041 20.041 0 0 0 12 20.825a20.039 20.039 0 0 0 3.286-2.688C17.203 16.184 19 13.473 19 10.2v-.025A7.001 7.001 0 0 0 12 3Zm0 19c-.49.872-.491.871-.491.871h-.001l-.002-.002-.007-.003-.022-.013a13.206 13.206 0 0 1-.352-.214 22.026 22.026 0 0 1-3.838-3.101C5.205 17.418 3.004 14.234 3 10.212A9 9 0 0 1 12 1m0 21 .49.872a1 1 0 0 1-.98 0L12 22Zm0-21a9 9 0 0 1 9 9.212c-.005 4.021-2.206 7.206-4.287 9.326a22.025 22.025 0 0 1-3.838 3.101 13.162 13.162 0 0 1-.353.214l-.022.013-.006.003-.003.002L12 22"/><path d="M12 8a2 2 0 1 0 0 4 2 2 0 0 0 0-4Zm-4 2a4 4 0 1 1 8 0 4 4 0 0 1-8 0Z"/></g></symbol><symbol viewBox="0 0 25 24" id="mail" xmlns="http://www.w3.org/2000/svg"><path fill-rule="evenodd" clip-rule="evenodd" d="M4.555 5.42C3.941 5.991 3.5 6.94 3.5 8.5v7c0 1.56.44 2.509 1.055 3.08.629.583 1.598.92 2.945.92h10c1.347 0 2.316-.337 2.945-.92.614-.571 1.055-1.52 1.055-3.08v-7c0-1.56-.44-2.509-1.055-3.08-.629-.583-1.598-.92-2.945-.92h-10c-1.347 0-2.316.337-2.945.92Zm-1.36-1.465C4.316 2.913 5.847 2.5 7.5 2.5h10c1.653 0 3.184.413 4.305 1.455C22.941 5.009 23.5 6.559 23.5 8.5v7c0 1.94-.56 3.491-1.695 4.545-1.121 1.042-2.652 1.455-4.305 1.455h-10c-1.653 0-3.184-.413-4.305-1.455C2.059 18.991 1.5 17.441 1.5 15.5v-7c0-1.94.56-3.491 1.695-4.545Z"/><path fill-rule="evenodd" clip-rule="evenodd" d="M18.281 8.376a1 1 0 0 1-.157 1.405l-3.131 2.501c-1.395 1.11-3.601 1.11-4.996 0l-.002-.002-3.12-2.5a1 1 0 0 1 1.25-1.56l3.119 2.498c.665.53 1.837.53 2.503 0l3.129-2.5a1 1 0 0 1 1.405.158Z"/></symbol><symbol viewBox="0 0 24 24" id="minus" xmlns="http://www.w3.org/2000/svg"><path fill-rule="evenodd" clip-rule="evenodd" d="M4 12a1 1 0 0 1 1-1h14a1 1 0 1 1 0 2H5a1 1 0 0 1-1-1Z"/></symbol><symbol viewBox="0 0 19 18" id="more" xmlns="http://www.w3.org/2000/svg"><circle cx="2.5" cy="9" r="2"/><circle cx="9.5" cy="9" r="2"/><circle cx="16.5" cy="9" r="2"/></symbol><symbol viewBox="0 0 24 24" id="ok" xmlns="http://www.w3.org/2000/svg"><g clip-path="url(#bpa)"><path d="M16.746 15.047c-1.07.68-2.543.95-3.516 1.05l.817.805 2.98 2.98c1.09 1.118-.684 2.864-1.785 1.786-.746-.758-1.84-1.852-2.98-2.992L9.28 21.664c-1.102 1.074-2.875-.687-1.773-1.785.757-.758 1.84-1.852 2.98-2.98l.805-.805c-.961-.102-2.457-.356-3.54-1.051-1.273-.82-1.831-1.3-1.34-2.305.29-.57 1.083-1.05 2.134-.222 0 0 1.418 1.129 3.707 1.129 2.289 0 3.707-1.13 3.707-1.13 1.05-.824 1.84-.347 2.132.223.485 1.004-.074 1.485-1.347 2.309Zm-9.563-7.98A5.07 5.07 0 0 1 12.25 2a5.07 5.07 0 0 1 5.066 5.066c0 2.79-2.277 5.055-5.066 5.055-2.79 0-5.067-2.266-5.067-5.055Zm2.578 0a2.492 2.492 0 0 0 2.489 2.488 2.495 2.495 0 0 0 0-4.988 2.495 2.495 0 0 0-2.489 2.5Z"/></g><defs><clipPath id="bpa"><path transform="translate(6 2)" d="M0 0h12.5v20H0z"/></clipPath></defs></symbol><symbol viewBox="0 0 24 24" id="phone" xmlns="http://www.w3.org/2000/svg"><path d="M9.073 10.536a11.73 11.73 0 0 0 4.391 4.39l.983-1.375a1.11 1.11 0 0 1 1.437-.329 12.692 12.692 0 0 0 5.093 1.516A1.111 1.111 0 0 1 22 15.846v4.957a1.11 1.11 0 0 1-.998 1.106c-.589.061-1.182.091-1.78.091C9.712 22 2 14.289 2 4.778c0-.598.03-1.191.091-1.78A1.111 1.111 0 0 1 3.197 2h4.957a1.111 1.111 0 0 1 1.108 1.023 12.69 12.69 0 0 0 1.516 5.093 1.111 1.111 0 0 1-.33 1.437l-1.375.983Zm-2.802-.73 2.111-1.508a14.9 14.9 0 0 1-1.219-4.076h-2.93c-.006.185-.01.37-.01.556 0 8.284 6.715 15 15 15 .185 0 .37-.004.555-.011v-2.93c-1.41-.21-2.782-.62-4.076-1.22l-1.508 2.112a13.844 13.844 0 0 1-1.764-.833l-.064-.037a13.95 13.95 0 0 1-5.225-5.225l-.037-.064a13.826 13.826 0 0 1-.833-1.764Z"/></symbol><symbol viewBox="0 0 20 24" id="play" xmlns="http://www.w3.org/2000/svg"><path d="M17.492 7.969 7.954.975A5 5 0 0 0 0 5.005V19a4.994 4.994 0 0 0 7.954 4.03l9.538-6.994a5 5 0 0 0 0-8.062v-.005Z"/></symbol><symbol viewBox="0 0 24 24" id="plus" xmlns="http://www.w3.org/2000/svg"><g fill-rule="evenodd" clip-rule="evenodd"><path d="M12 4a1 1 0 0 1 1 1v14a1 1 0 1 1-2 0V5a1 1 0 0 1 1-1Z"/><path d="M4 12a1 1 0 0 1 1-1h14a1 1 0 1 1 0 2H5a1 1 0 0 1-1-1Z"/></g></symbol><symbol viewBox="0 0 24 24" id="staple" xmlns="http://www.w3.org/2000/svg"><path fill-rule="evenodd" clip-rule="evenodd" d="M15.78 2.388c-.796 0-1.56.316-2.123.879l-9.19 9.19a5.003 5.003 0 0 0 7.076 7.076l9.19-9.19a1 1 0 0 1 1.414 1.414l-9.19 9.19a7.003 7.003 0 1 1-9.904-9.904l9.19-9.19a5.002 5.002 0 1 1 7.074 7.074l-9.2 9.19a3.001 3.001 0 0 1-4.244-4.244l8.49-8.48a1 1 0 1 1 1.414 1.414l-8.49 8.48a1.002 1.002 0 0 0 .708 1.709 1 1 0 0 0 .708-.293l9.2-9.19a3.003 3.003 0 0 0-2.123-5.125Z"/></symbol><symbol viewBox="0 0 20 18" id="star" xmlns="http://www.w3.org/2000/svg"><path d="m18.51 6.586-5.455-.793L10.616.85a.69.69 0 0 0-1.233 0L6.944 5.793l-5.454.793a.686.686 0 0 0-.38 1.173l3.946 3.848-.932 5.434a.686.686 0 0 0 .996.724L10 15.199l4.879 2.566a.686.686 0 0 0 .997-.724l-.933-5.434L18.89 7.76a.686.686 0 0 0 .2-.393.685.685 0 0 0-.58-.78Z"/></symbol><symbol preserveAspectRatio="xMinYMin slice" viewBox="0 0 130 22" id="star_5" xmlns="http://www.w3.org/2000/svg"><path d="m19.51 7.586-5.454-.793-2.439-4.943a.69.69 0 0 0-1.233 0L7.945 6.793l-5.454.793a.686.686 0 0 0-.38 1.173l3.946 3.848-.932 5.433a.687.687 0 0 0 .996.724l4.88-2.565 4.879 2.565a.686.686 0 0 0 .997-.724l-.933-5.433 3.947-3.848a.685.685 0 0 0 .2-.393.685.685 0 0 0-.58-.78Zm27 0-5.454-.793-2.439-4.943a.69.69 0 0 0-1.233 0l-2.439 4.943-5.454.793a.686.686 0 0 0-.38 1.173l3.946 3.848-.933 5.433a.688.688 0 0 0 .997.724l4.88-2.565 4.879 2.565a.686.686 0 0 0 .997-.724l-.933-5.433 3.947-3.848a.685.685 0 0 0 .2-.393.685.685 0 0 0-.58-.78Zm27 0-5.454-.793-2.439-4.943a.69.69 0 0 0-1.233 0l-2.439 4.943-5.454.793a.686.686 0 0 0-.38 1.173l3.946 3.848-.933 5.433a.688.688 0 0 0 .997.724l4.88-2.565 4.879 2.565a.686.686 0 0 0 .997-.724l-.933-5.433 3.947-3.848a.685.685 0 0 0 .2-.393.685.685 0 0 0-.58-.78Zm27 0-5.454-.793-2.439-4.943a.69.69 0 0 0-1.233 0l-2.439 4.943-5.454.793a.686.686 0 0 0-.38 1.173l3.946 3.848-.933 5.433a.688.688 0 0 0 .997.724l4.88-2.565 4.879 2.565a.686.686 0 0 0 .997-.724l-.933-5.433 3.947-3.848a.686.686 0 0 0-.381-1.173Zm27 0-5.454-.793-2.439-4.943a.69.69 0 0 0-1.233 0l-2.439 4.943-5.454.793a.689.689 0 0 0-.589.69.694.694 0 0 0 .208.483l3.947 3.848-.932 5.433a.688.688 0 0 0 .627.802.684.684 0 0 0 .369-.078l4.88-2.565 4.879 2.565a.685.685 0 0 0 .996-.724l-.932-5.433 3.947-3.848a.686.686 0 0 0-.381-1.173Z"/></symbol><symbol preserveAspectRatio="xMinYMin slice" viewBox="0 0 80 16" id="star_5_not_gap" xmlns="http://www.w3.org/2000/svg"><path d="m14.189 5.517-3.967-.576-1.774-3.595a.502.502 0 0 0-.897 0L5.778 4.94l-3.967.576a.5.5 0 0 0-.277.854l2.87 2.798-.678 3.951a.5.5 0 0 0 .725.527L8 11.781l3.548 1.866a.5.5 0 0 0 .725-.527l-.678-3.951 2.87-2.798a.499.499 0 0 0-.276-.854Zm16 0-3.968-.576-1.773-3.595a.502.502 0 0 0-.897 0L21.778 4.94l-3.967.576a.499.499 0 0 0-.277.854l2.87 2.798-.678 3.951a.5.5 0 0 0 .725.527L24 11.781l3.548 1.866a.5.5 0 0 0 .725-.527l-.678-3.951 2.87-2.798a.499.499 0 0 0-.276-.854Zm16 0-3.968-.576-1.773-3.595a.502.502 0 0 0-.897 0L37.778 4.94l-3.967.576a.499.499 0 0 0-.277.854l2.87 2.798-.678 3.951a.5.5 0 0 0 .725.527L40 11.781l3.548 1.866a.5.5 0 0 0 .725-.527l-.678-3.951 2.87-2.798a.499.499 0 0 0-.276-.854Zm16 0-3.968-.576-1.773-3.595a.502.502 0 0 0-.897 0L53.778 4.94l-3.967.576a.499.499 0 0 0-.277.854l2.87 2.798-.678 3.951a.5.5 0 0 0 .725.527L56 11.781l3.548 1.866a.5.5 0 0 0 .725-.527l-.678-3.951 2.87-2.798a.499.499 0 0 0-.276-.854ZM78.189 5.517l-3.967-.576-1.774-3.595a.502.502 0 0 0-.897 0L69.778 4.94l-3.967.576a.499.499 0 0 0-.277.854l2.87 2.798-.678 3.951a.5.5 0 0 0 .725.527L72 11.781l3.548 1.866a.5.5 0 0 0 .725-.527l-.678-3.951 2.87-2.798a.499.499 0 0 0-.276-.854Z"/><path d="m78.189 5.517-3.967-.576-1.774-3.595a.502.502 0 0 0-.897 0L69.778 4.94l-3.967.576a.499.499 0 0 0-.277.854l2.87 2.798-.678 3.951a.5.5 0 0 0 .725.527L72 11.781l3.548 1.866a.5.5 0 0 0 .725-.527l-.678-3.951 2.87-2.798a.499.499 0 0 0-.276-.854Z"/></symbol><symbol viewBox="0 0 24 24" id="tg" xmlns="http://www.w3.org/2000/svg"><path d="M19.539 5.17 3.592 11.29c-.642.285-.86.856-.156 1.166l4.092 1.294 9.891-6.084c.54-.382 1.093-.28.618.14L9.54 15.46l-.267 3.24c.247.5.7.502.989.254l2.35-2.214 4.026 3c.935.551 1.443.196 1.645-.814l2.64-12.442c.274-1.243-.194-1.79-1.385-1.315Z"/></symbol><symbol viewBox="0 0 24 24" id="trash" xmlns="http://www.w3.org/2000/svg"><g fill-rule="evenodd" clip-rule="evenodd"><path d="M2 6a1 1 0 0 1 1-1h18a1 1 0 1 1 0 2H3a1 1 0 0 1-1-1Z"/><path d="M10 3a1 1 0 0 0-1 1v1h6V4a1 1 0 0 0-1-1h-4Zm7 2V4a3 3 0 0 0-3-3h-4a3 3 0 0 0-3 3v1H5a1 1 0 0 0-1 1v14a3 3 0 0 0 3 3h10a3 3 0 0 0 3-3V6a1 1 0 0 0-1-1h-2ZM6 7v13a1 1 0 0 0 1 1h10a1 1 0 0 0 1-1V7H6Z"/><path d="M10 10a1 1 0 0 1 1 1v6a1 1 0 1 1-2 0v-6a1 1 0 0 1 1-1Zm4 0a1 1 0 0 1 1 1v6a1 1 0 1 1-2 0v-6a1 1 0 0 1 1-1Z"/></g></symbol><symbol viewBox="0 0 24 24" id="update" xmlns="http://www.w3.org/2000/svg"><path fill-rule="evenodd" clip-rule="evenodd" d="M15.443 3.68a9 9 0 1 0 4.964 11.533 1 1 0 0 1 1.867.715A11 11 0 1 1 20.5 5.013V2a1 1 0 1 1 2 0v6a1 1 0 0 1-1 1h-6a1 1 0 1 1 0-2h3.987a9 9 0 0 0-4.044-3.32Z"/></symbol><symbol viewBox="0 0 16 16" id="validation" xmlns="http://www.w3.org/2000/svg"><path fill-rule="evenodd" clip-rule="evenodd" d="M6.977 1.268a2.086 2.086 0 0 1 2.806.736l.002.003 5.936 9.909a2.086 2.086 0 0 1-1.784 3.128H2.063A2.086 2.086 0 0 1 .28 11.916l.005-.01 5.93-9.899.588.353-.586-.356c.186-.306.447-.56.76-.736Zm.413 1.446v.001l-5.925 9.89a.714.714 0 0 0 .61 1.068h11.85a.715.715 0 0 0 .61-1.068l-5.924-9.89-.001-.001a.714.714 0 0 0-1.22 0Z"/><path fill-rule="evenodd" clip-rule="evenodd" d="M8 5.273c.379 0 .686.307.686.686v2.8a.686.686 0 1 1-1.372 0v-2.8c0-.379.307-.686.686-.686Zm-.686 6.286c0-.379.307-.686.686-.686h.008a.686.686 0 0 1 0 1.372H8a.686.686 0 0 1-.686-.686Z"/></symbol><symbol viewBox="0 0 24 24" id="view" xmlns="http://www.w3.org/2000/svg"><path d="M12 16c1.25 0 2.313-.438 3.188-1.313.874-.874 1.312-1.937 1.312-3.187 0-1.25-.438-2.313-1.313-3.188C14.313 7.439 13.25 7 12 7c-1.25 0-2.313.438-3.188 1.313C7.939 9.187 7.5 10.25 7.5 11.5c0 1.25.438 2.313 1.313 3.188C9.687 15.562 10.75 16 12 16Zm0-1.8c-.75 0-1.387-.262-1.912-.787A2.604 2.604 0 0 1 9.3 11.5c0-.75.262-1.387.787-1.912A2.604 2.604 0 0 1 12 8.8c.75 0 1.387.262 1.912.787.525.526.788 1.163.788 1.913s-.262 1.387-.787 1.912A2.604 2.604 0 0 1 12 14.2Zm0 4.8c-2.433 0-4.65-.68-6.65-2.038-2-1.358-3.45-3.179-4.35-5.462.9-2.283 2.35-4.104 4.35-5.463C7.35 4.68 9.567 4 12 4c2.433 0 4.65.68 6.65 2.037 2 1.359 3.45 3.18 4.35 5.463-.9 2.283-2.35 4.104-4.35 5.462C16.65 18.322 14.433 19 12 19Z"/></symbol><symbol viewBox="0 0 22 22" id="view_rect" xmlns="http://www.w3.org/2000/svg"><path d="M13 1.75c1.907 0 3.262.002 4.29.14 1.005.135 1.585.389 2.008.812.487.487.7.865.817 1.538.132.759.135 1.84.135 3.76a.75.75 0 0 0 1.5 0v-.096c0-1.8 0-3.018-.158-3.922-.175-1.005-.549-1.656-1.233-2.34C19.61.891 18.66.56 17.489.402 16.349.25 14.894.25 13.056.25H13a.75.75 0 0 0 0 1.5ZM1 13.25a.75.75 0 0 1 .75.75c0 1.92.003 3.001.135 3.76.118.673.33 1.051.817 1.538.423.423 1.003.677 2.009.812 1.028.138 2.382.14 4.289.14a.75.75 0 0 1 0 1.5h-.056c-1.838 0-3.294 0-4.433-.153-1.172-.158-2.121-.49-2.87-1.238-.684-.685-1.058-1.336-1.233-2.341C.25 17.114.25 15.895.25 14.096V14a.75.75 0 0 1 .75-.75Zm20 0a.75.75 0 0 1 .75.75v.096c0 1.8 0 3.018-.158 3.922-.175 1.005-.549 1.656-1.233 2.34-.749.75-1.698 1.081-2.87 1.239-1.14.153-2.595.153-4.433.153H13a.75.75 0 0 1 0-1.5c1.907 0 3.262-.002 4.29-.14 1.005-.135 1.585-.389 2.008-.812.487-.487.7-.865.817-1.538.132-.759.135-1.84.135-3.76a.75.75 0 0 1 .75-.75ZM8.944.25H9a.75.75 0 0 1 0 1.5c-1.907 0-3.261.002-4.29.14-1.005.135-1.585.389-2.008.812-.487.487-.7.865-.817 1.538-.132.759-.135 1.84-.135 3.76a.75.75 0 1 1-1.5 0v-.096c0-1.8 0-3.018.158-3.922.175-1.005.549-1.656 1.233-2.34C2.39.891 3.34.56 4.511.402 5.651.25 7.106.25 8.944.25ZM11 9.75a1.25 1.25 0 1 0 0 2.5 1.25 1.25 0 0 0 0-2.5Z"/><path fill-rule="evenodd" clip-rule="evenodd" d="M4.892 13.06C4.297 12.37 4 12.025 4 11c0-1.025.297-1.37.892-2.06C6.08 7.562 8.072 6 11 6c2.927 0 4.92 1.562 6.108 2.94.595.69.892 1.035.892 2.06 0 1.025-.297 1.37-.892 2.06C15.92 14.438 13.928 16 11 16c-2.927 0-4.92-1.562-6.108-2.94ZM8.25 11a2.75 2.75 0 1 1 5.5 0 2.75 2.75 0 0 1-5.5 0Z"/></symbol><symbol viewBox="0 0 24 24" id="vk" xmlns="http://www.w3.org/2000/svg"><path d="M13.016 18.571C6.26 18.571 2.16 13.848 2 6h3.422c.107 5.765 2.71 8.212 4.706 8.71V6h3.28v4.974c1.925-.215 3.939-2.478 4.617-4.974h3.226c-.517 3.071-2.709 5.334-4.26 6.268 1.551.754 4.047 2.73 5.009 6.303h-3.547c-.749-2.388-2.585-4.238-5.045-4.49v4.49h-.392Z"/></symbol><symbol viewBox="0 0 24 24" id="wa" xmlns="http://www.w3.org/2000/svg"><path d="M18.725 5.19a9.443 9.443 0 0 0-6.729-2.79A9.524 9.524 0 0 0 3.75 16.671l-1.35 4.93 5.045-1.325a9.485 9.485 0 0 0 4.547 1.157h.004c5.242 0 9.604-4.268 9.604-9.514 0-2.541-1.08-4.929-2.875-6.729Zm-6.729 14.64a7.894 7.894 0 0 1-4.028-1.101l-.288-.171-2.991.784.797-2.919-.188-.3a7.882 7.882 0 0 1-1.209-4.208c0-4.359 3.549-7.907 7.911-7.907 2.113 0 4.098.822 5.589 2.318 1.491 1.496 2.409 3.48 2.404 5.593 0 4.363-3.638 7.911-7.997 7.911Zm4.337-5.922c-.235-.12-1.405-.695-1.624-.772-.219-.081-.377-.12-.536.12-.158.24-.613.771-.754.934-.137.159-.279.18-.514.06-1.397-.698-2.315-1.247-3.236-2.828-.244-.42.244-.39.698-1.299.078-.158.04-.295-.02-.415s-.537-1.29-.734-1.766c-.193-.463-.39-.399-.535-.407-.138-.009-.296-.009-.455-.009a.88.88 0 0 0-.634.296c-.219.24-.831.814-.831 1.984s.852 2.302.968 2.46c.12.159 1.676 2.559 4.063 3.591 1.508.652 2.1.708 2.854.596.459-.068 1.406-.574 1.603-1.131.197-.557.197-1.033.137-1.132-.056-.107-.214-.167-.45-.282Z"/></symbol></svg>